<?xml version="1.0" encoding="utf-8"?>
<!-- Generator: Adobe Illustrator 26.5.0, SVG Export Plug-In . SVG Version: 6.00 Build 0)  -->
<svg version="1.1" id="Ñëîé_1" xmlns="http://www.w3.org/2000/svg" xmlns:xlink="http://www.w3.org/1999/xlink" x="0px" y="0px"
	 viewBox="0 0 2670 1107.25" style="enable-background:new 0 0 2670 1107.25;" xml:space="preserve">
<path d="M0,720.94v386.31h2670V631.56c-2.6,0.71-5.54,1.6-8.44,3.01c-0.32-3.13-0.73-7.21-1.28-12.58
	c-0.29-2.89-0.54-5.16-1.27-8.25c-0.46-1.95-1.49-5.77-5.49-14.44c-2.85-6.18-2.67-4.97-5.23-10.57c-2.8-6.12-2.95-7.44-6.32-14.93
	c-0.03-0.07-1.33-2.96-3-6.84c-1.32-3.07-1.67-3.96-1.93-4.63c-0.48-1.27-1.32-3.58-2.17-6.57c-0.67-2.37-0.45-1.99-1.28-5.01
	c-1-3.64-1.51-5.46-1.94-6.34c-0.53-1.09-1.02-1.82-1.07-3.02c-0.05-1.28,0.42-2.39,0.64-2.89c0.11-0.25,0.43-0.97,1.13-1.89
	c0.9-1.18,1.71-1.78,2.54-2.48c2.1-1.77,1.61-1.96,3.56-3.63c1.76-1.51,3.24-2.28,4.37-2.87c2.03-1.05,2.83-1.09,3.17-1.1
	c0.85-0.01,1.24,0.2,2.04-0.02c0.31-0.09,1.54-0.42,1.89-1.52c0.31-0.97-0.26-1.88-0.42-2.13c-0.35-0.55-0.81-0.92-1.52-1.33
	c-2.12-1.22-4.15-1.47-4.37-1.49c-1.89-0.21-3.3,0.12-4.58,0.43c-1.65,0.39-2.47,0.59-3.32,1.21c-0.48,0.35-0.96,0.82-1.17,0.68
	c-0.19-0.13,0-0.65,0.12-1.32c0.19-1.12,0.01-1.78-0.05-2.69c-0.07-1.01,0.23-2.44,0.83-5.3c0.25-1.21,0.48-2.28,0.89-3.72
	c0.37-1.31,0.62-1.95,1.07-3.3c0.67-2.01,1.25-3.74,1.68-5.51c0.25-1.06,0.46-2.82,0.88-6.35c0.59-4.97,0.4-4.35,0.67-5.86
	c0.23-1.34,0.54-2.76,0.65-4.91c0.07-1.52,0-2.56-0.62-3.56c-0.24-0.38-0.84-1.34-1.94-1.57c-1.06-0.23-1.91,0.38-2.11,0.52
	c-0.78,0.56-1.07,1.36-1.22,1.79c-0.73,2.14-1.1,3.22-1.51,5.03c-0.79,3.55-1.17,2.79-1.72,5.7c-0.24,1.26-0.46,2.94-1.55,4.75
	c-0.18,0.3-0.81,1.34-1.14,1.22c-0.23-0.08-0.22-0.7-0.22-1c0-1.42-0.49-2.82-0.68-4.23c-0.15-1.11-0.8-2.64-2.09-5.71
	c-1.05-2.49-1.92-4.22-2.69-5.74c-1.18-2.35-1.84-3.45-2.64-4.56c-1.82-2.56-2.8-2.98-3.46-3.13c-0.2-0.05-1.7-0.35-2.63,0.54
	c-0.78,0.75-0.71,1.91-0.68,2.38c0.04,0.62,0.21,1.07,0.42,1.62c0.71,1.8,1.42,3.6,1.64,4.14c0.42,1.07,0.21,0.68,1.12,3.23
	c0.63,1.78,0.77,2.08,1.23,3.42c0.58,1.71,0.87,2.56,0.94,3.15c0.07,0.52-0.02,1.63-0.18,3.83c-0.2,2.59-0.21,2.1-0.21,2.55
	c-0.02,1.53,0.17,2.21-0.33,2.95c-0.29,0.42-0.81,0.89-1.22,0.76c-0.15-0.05-0.25-0.16-0.59-0.74c-0.34-0.56-0.5-0.84-0.63-1.09
	c-0.19-0.4-0.35-0.6-1.86-2.48c-1.47-1.83-1.57-1.97-1.9-2.25c-0.77-0.67-1.48-1.06-1.79-1.22c-1.08-0.55-1.97-0.7-2.92-0.88
	c-4.31-0.79-4.47-1.04-6.38-1.12c-1.06-0.04-2.05-0.01-3.12,0.39c-0.66,0.25-1.7,0.63-1.86,1.47c-0.12,0.62,0.31,1.18,0.69,1.69
	c0.18,0.24,1.21,1.56,2.98,1.99c0.85,0.2,1.17,0.03,2,0.4c0.53,0.24,0.64,0.41,1.33,0.91c1.65,1.18,2.24,1.02,3.18,1.98
	c0.49,0.49,0.2,0.4,0.98,1.37c1.09,1.34,2.47,2.57,2.47,2.57c0.63,0.55,1.08,0.89,1,1.05c-0.06,0.13-0.45,0.09-0.73-0.02
	c-0.33-0.13-0.51-0.34-0.71-0.56c-0.33-0.34-0.73-0.61-1.09-0.92c-1.19-1.05-1.78-1.58-2.08-1.82c-0.92-0.74-1.52-1.22-2.41-1.56
	c-1.14-0.45-1.39-0.15-2.98-0.62c-0.8-0.24-1.36-0.5-2.14-0.87c-0.94-0.44-1.98-1.01-3.4-1.54c-0.27-0.1-0.71-0.26-1.24-0.18
	c-0.16,0.02-0.72,0.11-1.13,0.56c-0.53,0.59-0.42,1.38-0.39,1.66c0.08,0.57,0.33,1.09,1.01,1.9c1.07,1.29,2.15,2.08,2.48,2.32
	c1.3,0.92,3.19,1.99,3.89,2.38c0.21,0.12,0.65,0.37,1.11,0.83c0.43,0.43,0.39,0.57,0.88,1.23c0.54,0.72,1.06,1.42,1.86,1.97
	c0.16,0.11,0.34,0.22,0.48,0.44c0.24,0.37,0.17,0.72,0.13,1.31c-0.09,1.26-0.14,1.88,0.09,2.39c0.07,0.15,0.23,0.45,0.26,0.88
	c0.02,0.28-0.02,0.49-0.03,0.57c-0.22,1.12-0.27,2.28-0.55,3.39c-0.42,1.7-0.46,5.55-0.11,8.78c0,0,0.44,4.19,2.32,9.77
	c0.58,1.72,0.86,2.58,0.98,2.77c0.25,0.41,0.68,1.01,0.48,1.27c-0.11,0.14-0.31,0.07-0.78,0.19c-0.36,0.1-0.5,0.21-0.84,0.37
	c-0.62,0.3-1.09,0.38-1.36,0.46c-1.13,0.33-2.12,1.53-2.66,2.18c-0.81,0.99-1.73,2.11-1.95,3.55c-0.28,1.9,0.8,3.42,1.99,5.34
	c0,0,2.5,4.02,4.42,8.32c2.07,4.64,0.43,6.58,1.08,13.58c0.15,1.57,0.36,2.88,3.23,12.83c4.6,15.97,4.75,15.02,5.94,20.21
	c0.42,1.82,1.3,7.32,3.05,18.25c1.83,11.44,1.65,10.64,2.19,13.67c2.08,11.65,2.91,12.42,4.37,21.14c0.11,0.66,0.21,1.27,0.3,1.86
	c-0.19,0.05-0.38,0.12-0.61,0.21c-1.23,0.52-1.44,1.04-2.67,1.3c-1.3,0.28-8.16-1.89-9.39-1.81c-1.86,0.12-2.09,1.24-5.33,3
	c-0.69,0.38-1.71,0.82-3.76,1.7c-0.51,0.22-1.8,0.77-3.52,1.3c0,0-0.78,0.24-2.91,0.4c-0.33,0.03-0.79,0.05-0.97-0.17
	c-0.17-0.2-0.05-0.53,0.12-0.73c0.22-0.26,0.58-0.35,0.81-0.4c1.12-0.23,1.79,0.03,2.47-0.03c0.88-0.08,1.5-0.76,2.71-2.13
	c0.47-0.53,0.95-1.13,2.3-3.14c1.12-1.66,1.68-2.5,1.9-3c0.4-0.93,0.44-1.46,0.81-3.74c0.59-3.64,0.58-3.64,0.69-4
	c0.55-1.91,1.24-2.48,2.22-4.37c0.82-1.59,1.21-2.24,1.94-5.94c1.48-7.55,1.36-7.79,1.46-10.12c0.08-1.89,0.09-2.26-0.09-7.22
	c-0.18-4.83-0.83-7.12-1.37-8.59c-1.14-3.15-2.53-6.03-4.87-8.47c-3.65-3.81-6.08-5.7-9.09-7.54c-3.55-2.17-6.32-4.28-10.85-5.35
	c-5.39-1.28-3.95-1.11-7.58-1.31c-3.63-0.2-7.3,0.42-12.91,1.57c-5.86,1.2-11.2,3.57-14.18,4.9c-0.22,0.1-0.4,0.18-0.67,0.3
	c-2.93,1.34-8.97,4.11-13.33,8.86c-3.3,3.59-4.53,7.1-5.21,9.11c-0.84,2.48-1.25,5.39-2.06,11.21c-0.38,2.69-0.61,4.8-0.61,4.8
	c-0.13,1.17-0.48,4.67-0.36,3.5c0.06,0.32,0.1,0.8-0.12,1.3c-0.3,0.68-0.9,1.06-1.09,1.2c-0.91,0.65-1.01,1.87-1.21,6
	c-0.45,9.28-0.03,5.04-0.12,6c-0.11,1.19-0.26,2.24,0.48,3.3c0.15,0.22,0.85,1.21,2.18,1.6c1.13,0.33,2.12,0.25,2.12,0.25
	c0.55-0.05,0.97-0.17,1.15,0c0.22,0.22-0.1,0.72-0.18,0.85c-0.96,1.56-1.17,5.22-1.03,7.05c0.16,2.11,0.26,3.49,1.45,4.65
	c0.65,0.63,1.82,1.41,2.61,3c0.07,0.13,0.21,0.43,0.36,0.9c0.69,2.06,0.49,3.91,0.42,5.1c-0.02,0.42,0.07,1.97,0.24,5.05
	c0.08,1.42-0.17,2.86,0.18,4.25c0.2,0.79,0.59,1.94,0,2.3c-0.23,0.14-0.53,0.12-0.67,0.1c-2.23-0.24-4.85-1.7-4.85-1.7
	c-2.3-1.28-1.92-0.67-4.97-2.25c-2.4-1.24-2.74-1.67-3.63-2.22c0,0-0.64-0.38-1.28-0.68c-0.3-0.14-1.19,0.53-2.48,1.82
	c0.23-1.07,0.45-2.26,0.64-3.6c1.05-7.36-0.6-6.09-0.26-19.58c0.22-8.84,0.94-9.71,1.35-21.54c0.11-3.08,0.03-2.26,0.24-13.84
	c0.2-11.07,0.3-16.64,0.46-18.5c0.45-5.3,0.73-4.39,3.03-20.84c1.44-10.26,1.47-11.57,1.39-13.15c-0.34-7.02-2.25-8.71-0.85-13.6
	c1.3-4.53,3.2-8.86,3.2-8.86c0.91-2.07,1.77-3.73,1.22-5.57c-0.42-1.39-1.49-2.38-2.43-3.24c-0.62-0.57-1.77-1.62-2.94-1.79
	c-0.29-0.04-0.76-0.05-1.42-0.26c-0.36-0.11-0.51-0.21-0.88-0.25c-0.48-0.06-0.67,0.04-0.79-0.08c-0.23-0.23,0.11-0.89,0.3-1.33
	c0.09-0.21,0.26-1.1,0.58-2.88c1.07-5.79,0.92-10,0.92-10c-0.12-3.25-0.69-7.05-1.35-8.68c-0.43-1.06-0.65-2.2-1.02-3.28
	c-0.02-0.07-0.1-0.27-0.11-0.56c-0.03-0.43,0.09-0.75,0.13-0.91c0.16-0.53,0.02-1.15-0.24-2.38c-0.13-0.58-0.24-0.91-0.06-1.31
	c0.11-0.24,0.27-0.37,0.42-0.5c0.72-0.66,1.14-1.42,1.57-2.21c0.39-0.72,0.34-0.85,0.7-1.34c0.39-0.53,0.8-0.84,0.99-0.98
	c0.63-0.48,2.36-1.81,3.51-2.91c0.3-0.28,1.26-1.22,2.13-2.64c0.56-0.91,0.74-1.45,0.73-2.03c0-0.28-0.01-1.08-0.61-1.59
	c-0.47-0.39-1.03-0.4-1.19-0.4c-0.54,0-0.95,0.22-1.21,0.35c-1.33,0.72-2.29,1.43-3.15,2c-0.72,0.47-1.24,0.81-2,1.16
	c-1.51,0.69-1.79,0.43-2.86,1.03c-0.83,0.47-1.35,1.03-2.17,1.89c-0.26,0.28-0.78,0.89-1.8,2.1c-0.31,0.36-0.67,0.68-0.95,1.07
	c-0.17,0.24-0.32,0.48-0.63,0.65c-0.26,0.14-0.64,0.24-0.72,0.12c-0.1-0.15,0.3-0.55,0.85-1.18c0,0,1.2-1.4,2.09-2.89
	c0.64-1.07,0.37-0.94,0.78-1.49c0.8-1.08,1.4-1.01,2.87-2.41c0.61-0.59,0.7-0.78,1.19-1.09c0.77-0.48,1.11-0.35,1.92-0.67
	c1.69-0.67,2.53-2.13,2.67-2.39c0.31-0.56,0.65-1.17,0.44-1.77c-0.27-0.81-1.35-1.04-2.05-1.19c-1.12-0.24-2.1-0.14-3.14,0.05
	c-1.88,0.35-2,0.63-6.16,2.01c-0.91,0.3-1.77,0.58-2.77,1.28c-0.28,0.2-0.93,0.68-1.6,1.46c-0.29,0.33-0.37,0.48-1.57,2.5
	c-1.23,2.08-1.36,2.3-1.5,2.72c-0.08,0.27-0.21,0.57-0.47,1.17c-0.26,0.61-0.34,0.74-0.48,0.81c-0.38,0.18-0.97-0.2-1.31-0.58
	c-0.6-0.66-0.51-1.37-0.74-2.88c-0.07-0.44-0.01,0.04-0.57-2.5c-0.47-2.15-0.71-3.24-0.72-3.76c-0.01-0.59,0.16-1.48,0.49-3.25
	c0.26-1.39,0.36-1.71,0.73-3.56c0.54-2.66,0.39-2.24,0.65-3.36c0.13-0.57,0.59-2.44,1.04-4.33c0.14-0.57,0.24-1.04,0.19-1.66
	c-0.04-0.47-0.13-1.63-1.01-2.26c-1.05-0.75-2.49-0.24-2.68-0.16c-0.63,0.24-1.54,0.79-2.98,3.58c-0.63,1.22-1.13,2.4-1.97,4.89
	c-0.55,1.62-1.17,3.46-1.86,6.07c-0.85,3.22-1.28,4.82-1.27,5.94c0.01,1.43-0.28,2.88-0.08,4.28c0.04,0.3,0.14,0.9-0.08,1.02
	c-0.31,0.17-1.08-0.78-1.3-1.05c-1.33-1.63-1.79-3.27-2.2-4.48c-0.96-2.8-1.22-2-2.51-5.4c-0.66-1.74-1.17-2.75-2.2-4.77
	c-0.21-0.41-0.6-1.16-1.46-1.6c-0.22-0.11-1.14-0.59-2.16-0.22c-1.05,0.38-1.51,1.42-1.69,1.83c-0.48,1.08-0.4,2.12-0.12,3.61
	c0.41,2.12,0.91,3.48,1.33,4.77c0.47,1.46,0.2,0.87,1.48,5.71c0.91,3.43,1.36,5.14,1.76,6.16c0.67,1.69,1.49,3.33,2.43,5.22
	c0.64,1.27,0.97,1.87,1.52,3.11c0.6,1.36,0.98,2.4,1.4,3.56c1,2.75,1.5,4.13,1.57,5.13c0.07,0.91-0.01,1.59,0.33,2.67
	c0.21,0.65,0.48,1.14,0.3,1.29c-0.19,0.16-0.73-0.23-1.25-0.51c-0.93-0.5-1.77-0.58-3.46-0.73c-1.32-0.12-2.76-0.25-4.6,0.22
	c-0.22,0.06-2.19,0.59-4.12,2.09c-0.07,0.05-0.12,0.1-0.18,0.15c-0.09-0.27-0.17-0.5-0.24-0.69c-7.33-20.98-17.29-37.24-20.01-41.59
	c-2.01-3.2-4.26-6.58-6.52-10.08c-0.06-0.41-0.14-0.81-0.24-1.2c-1.13-4.39-4.32-6.19-4.81-9.82c-0.35-2.57,0-5.01,0-5.01
	c0.06-0.4,0.12-0.75,0.16-0.93c0.19-0.89,0.46-1.59,1.14-4.25c0.89-3.49,0.63-3.14,1.24-5.23c0.68-2.35,1.02-2.85,1.11-4.37
	c0.03-0.55,0.08-1.97-0.36-3.76c-0.46-1.88-1.08-2.63-1.8-4.34c-0.55-1.28-0.49-1.53-1.47-5.8c-0.98-4.28-1.49-6.46-2.21-8.4
	c-0.58-1.56-1.11-2.69-2.18-4.94c-1.45-3.07-1.82-3.44-2.96-6.09c-0.51-1.17-1.06-2.32-1.54-3.49c-0.24-0.58-0.58-1.43-1.21-2.49
	c-0.48-0.8-0.73-1.21-1.19-1.59c-0.12-0.1-1.3-1.05-2.69-0.82c-0.07,0.01-1.36,0.24-1.96,1.32c-0.27,0.49-0.31,0.98-0.64,1.01
	c-0.26,0.03-0.46-0.26-0.8-0.54c-0.76-0.62-1.77-0.81-2.48-0.73c-1.18,0.14-1.78,1.07-1.92,1.27c-0.13,0.2-0.59,0.95-0.49,2.46
	c0.1,1.56,0.71,2.6,1.31,3.9c0.68,1.48,1.2,3.27,2.24,6.85c0.27,0.92,0.58,2.15,1.21,4.6c0.25,1,1.09,4.28,0.97,4.3
	c-0.05,0.01-0.25-0.63-0.84-1.9c-0.1-0.21-0.2-0.42-0.25-0.51c-0.35-0.72-0.62-1.24-0.69-1.38c-0.39-0.76-0.77-1.59-1.43-3.04
	c-0.68-1.49-1.02-2.23-1.18-2.65c-0.1-0.24-0.37-0.92-0.81-1.82c-0.08-0.16-0.14-0.28-0.22-0.43c-0.41-0.76-0.8-1.5-1.45-2.09
	c-0.4-0.36-0.89-0.82-1.52-0.84c-0.55-0.02-0.91,0.31-1.36,0.72c-0.28,0.25-0.83,0.76-1.05,1.62c-0.17,0.69-0.04,1.29,0.12,1.95
	c0.74,3.12,1,3.8,1,3.8c1.55,4,1.94,4.66,2.64,6.59c1.07,2.93,0.7,2.86,2.2,7.25c0.38,1.11,0.67,1.97,0.89,2.63
	c-0.78-0.07-1.59,0.02-2.33,0.47c-0.2,0.12-0.37,0.26-0.53,0.42c-0.17-0.27-0.35-0.54-0.54-0.83c-0.22-0.34-0.43-0.65-0.72-1.08
	c-0.25-0.37-0.36-0.52-0.63-0.91c0,0-0.28-0.41-0.6-0.9c-0.61-0.94-1.48-2.38-2.24-3.59c-0.78-1.25-1.46-2.28-2.46-3.08
	c-0.23-0.19-0.6-0.45-1.09-0.54c-0.77-0.13-1.33,0.27-1.46,0.37c-0.77,0.57-0.83,1.56-0.85,1.96c-0.04,0.66,0.11,1.2,0.2,1.5
	c0.67,2.22,1.68,3.79,1.68,3.79c0.12,0.19,1.08,1.99,2.99,5.59c2.02,3.79,3.01,6.23,3.27,6.89c0.07,0.18,0.13,0.34,0.2,0.51
	c-0.29,3.02-0.43,4.64-0.25,6.23c0.13,1.11,0.36,2.08,0.66,2.98c-1.09,4.48-1.07,4.22-1.14,4.68c-0.25,1.6,4.61,5.38,5.7,8.48
	c0.62,1.76,1.45,3.03,2.47,4.32c3.05,3.9,4.06,7.57,6.08,9.69c1.79,5.71,2.5,10.27,3.01,13.16c3.49,19.61,14.27,52.91,18.34,62.01
	c0.67,1.49,2.78,5.96,1.62,11.05c-0.32,1.39-0.77,2.36-1.01,2.87c-4.89,10.33-7.34,15.49-9.01,18.24c-1.83,3.01-3.14,5.3-4.17,7.21
	c0.22-1.98,0.38-3.86,0.35-4.53c-0.03-0.71-0.3-1.21-0.57-1.53c-0.32-0.39-0.49-0.9-0.45-1.42l0-0.01l0.96-14.01
	c0.06-2.82-0.23-7.68-2.82-12.51c-4.16-7.77-11.51-10.36-16.56-12.13c-3.31-1.17-9.46-3.24-17.28-1.62
	c-0.87,0.18-2.04,0.43-3.4,0.85c0.27-0.87,0.54-1.86,0.86-3.08c0.85-3.16,1.08-5.57,1.14-6.33c0.19-2.29,0.28-3.44,0.09-4.11
	c-0.19-0.7-0.45-1.21-0.09-1.83c0.44-0.76,1.36-0.89,2.84-1.76c0.66-0.39,1.75-1.03,2.46-1.96c0.11-0.15,1.82-2.43,0.28-4.05
	c-1.07-1.12-2.75-1.5-2.75-1.5c-0.63-0.14-1.08-0.13-1.33-0.39c-0.48-0.5,0.4-1.43,0.76-1.83c0.04-0.05,0.85-1.62,2.46-4.76
	c1.43-2.78,1.79-4.68,2.18-6.72c0.29-1.53,0.41-2.88-0.76-3.85c-0.21-0.17-0.84-0.68-1.9-0.85c-1.27-0.2-2.34,0.21-2.75,0.39
	c-0.68,0.31-1.08,0.71-2.09,2.41c-1,1.7-1.63,3.04-1.71,3.2c-0.78,1.67-1.17,2.51-1.33,2.94c-0.34,0.92-0.48,1.51-1.23,2.15
	c-0.29,0.25-0.88,0.74-1.9,0.91c-0.31,0.05-1.04,0.18-1.71-0.07c-0.69-0.25-0.64-0.66-1.33-1.31c-0.05-0.04-0.76-0.69-1.9-1.11
	c-1.41-0.52-2.82-0.43-3.32-0.39c-1.35,0.1-2.34,0.52-4.27,1.37c-1.31,0.58-1.67,0.82-3.7,1.76c-2.41,1.12-2.77,1.17-3.13,1.11
	c-0.93-0.15-1.43-0.97-2.37-3.26c-0.9-2.19-1.35-3.29-1.61-4.44c-1.14-4.92-1.7-7.38-1.71-9.92c0-1.11,0.07-3.01-1.61-4.5
	c-0.96-0.86-1.85-1.01-2.18-1.04c-1.55-0.18-2.81,0.64-3.03,0.78c-1.31,0.85-1.51,2.04-1.61,2.81c-0.54,3.94-0.09,6.4-0.09,6.4
	c0.7,3.9-0.07,2.14,0.85,8.49c0.51,3.52,0.67,3.52,1.71,9.4c1.05,6,0.87,5.91,1.52,8.75c0.88,3.89,1.25,4.2,1.8,7.38
	c0.32,1.86,0.47,3.61,0.76,7.11c0.39,4.74,0.3,5.83,0.19,6.59c-0.35,2.51-1.17,4.35-1.71,5.55c-2.38,5.31-5.51,12.33-6.82,15.6
	c-2.3,5.72-1.28,5.62-3.41,11.68c-1.59,4.53-2.7,6.14-7.68,15.26c-0.57-1.94-1.17-3.9-1.8-5.91c-7.54-24.12-13.14-42.03-21.89-59.97
	c7.4-12.75,16.51-29.86,21.41-41.9c0.44-1.08,0.98-2.44,1.63-3.98c1.7-0.8,1.78-1.02,3.01-1.55c1.76-0.76,2.21-0.56,3.61-1.08
	c1.6-0.59,2.86-1.75,5.33-4.04c1.94-1.81,1.95-2.02,3.9-3.86c2.45-2.3,2.69-2.2,4.3-3.75c2.35-2.26,2.31-2.93,5.42-6.62
	c0.83-0.99,2.46-2.87,4.66-5.04c2.9-2.87,4.36-4.3,6.78-5.76c2.18-1.31,2.6-1.11,5.01-2.67c1.91-1.23,3.38-2.2,4.64-3.91
	c0.96-1.3,2.74-3.71,1.78-6.09c-0.51-1.26-1.73-2.38-3.24-2.76c-1.66-0.41-3.08,0.24-4.14,0.72c-0.96,0.44-1.1,0.7-3.34,2.42
	c-1.99,1.53-1.51,1.03-4.07,2.95c-2.29,1.71-2.59,2.04-3.41,2.12c-1.54,0.14-2.82-0.86-3.66-1.52c-0.66-0.52-1.16-1.08-1.56-1.64
	c0.62-5.46,0.9-8.27-0.69-9.74c-0.04-0.03-0.08-0.05-0.11-0.08c0.18-0.03,0.4-0.06,0.71-0.11c2.25-0.33,3.39-0.5,4.18-1
	c0.29-0.18,1.08-0.68,1.36-1.6c0.38-1.24-0.46-2.35-0.55-2.48c-0.7-0.91-1.9-1.33-4.32-1.98c-1.34-0.36-2.05-0.34-2.56-0.93
	c-0.82-0.94-0.24-2.43,0.16-3.87c0.3-1.07,0.46-3.19,0.79-7.43c0.29-3.73,0.04-6.18-0.21-8.43c-0.47-4.3-1.15-5.31-2.07-5.77
	c-0.94-0.47-2.3-0.46-3.12,0.15c-1.13,0.85-0.62,2.38-0.96,4.53c-0.28,1.79-1.18,3.16-2.96,5.9c-2.76,4.23-3.95,4.55-5.72,7.23
	c-2.23,3.37-2.73,6.44-3.4,10.58c-0.19,1.15-0.38,4.92-0.76,12.42c-0.19,3.85-0.23,4.69-0.61,6.17c-0.23,0.89-0.5,1.71-0.81,2.47
	c-0.87,1-1.74,2-2.56,3.04c-6.29,7.87-13.98,15-20.2,21.49c-2.92,3.04-12.19,12.9-21.78,26.8c-8.12-11.62-14.94-19.28-16.92-21.47
	c-16.72-18.51-34.06-31.09-38.76-34.43c-3.46-2.46-7.25-5-11.1-7.65c-0.24-0.39-0.5-0.77-0.77-1.13c-3.09-4.04-7.13-4.57-9.24-8.1
	c-1.49-2.49-2.21-5.15-2.21-5.15c-0.12-0.43-0.21-0.82-0.25-1.02c-0.03-0.15-0.06-0.31-0.08-0.46c0.42-0.31,0.86-0.61,1.33-0.91
	c2.38-1.51,2.85-1.31,5.48-3.1c2.08-1.42,3.68-2.54,5.04-4.48c1.03-1.47,2.95-4.2,1.84-6.82c-0.59-1.39-1.96-2.61-3.64-2.98
	c-1.84-0.41-3.4,0.35-4.55,0.91c-1.06,0.52-1.2,0.81-3.64,2.78c-1.95,1.58-1.73,1.28-3.69,2.8c-0.14-1.48-0.17-2.16-0.62-3.39
	c-0.21-0.58-0.79-2.05-2.02-3.71c-1.3-1.74-2.26-2.26-3.76-3.71c-0.45-0.43-0.73-0.74-1.08-1.21c0.62-0.17,1.1-0.35,1.48-0.61
	c0.31-0.21,1.18-0.79,1.47-1.82c0.39-1.39-0.55-2.61-0.66-2.74c-0.79-0.99-2.13-1.43-4.81-2.09c-1.49-0.37-2.27-0.33-2.85-0.97
	c-0.92-1.03-0.32-2.69,0.1-4.31c0.31-1.2,0.44-3.56,0.72-8.29c0.24-4.16-0.09-6.88-0.41-9.38c-0.61-4.77-1.39-5.88-2.41-6.37
	c-1.04-0.5-2.55-0.46-3.45,0.25c-1.23,0.97-0.64,2.67-0.96,5.06c-0.27,2-1.23,3.55-3.15,6.64c-1.34,2.16-2.33,3.42-3.2,4.43
	c-0.27-0.25-0.56-0.52-0.9-0.84c-1.03-0.99-2.1-1.94-3.11-2.95c-0.49-0.49-1.22-1.23-2.34-2.06c-0.84-0.63-1.28-0.95-1.91-1.14
	c-0.16-0.05-1.79-0.54-3.11,0.26c-0.06,0.04-1.28,0.8-1.42,2.17c-0.06,0.61,0.11,1.13-0.21,1.3c-0.26,0.14-0.58-0.08-1.06-0.23
	c-1.05-0.32-2.17-0.1-2.85,0.28c-1.14,0.63-1.35,1.83-1.4,2.1c-0.05,0.26-0.18,1.22,0.58,2.73c0.79,1.56,1.87,2.38,3.05,3.46
	c1.35,1.23,2.67,2.86,5.3,6.1c0.64,0.78,1.45,1.85,2.98,3.85c-0.03,0.2-0.06,0.39-0.08,0.59c-0.03,0.19-0.05,0.45-0.08,0.76
	c-0.07-0.06-0.12-0.1-0.15-0.13c-0.73-0.62-1.48-1.31-2.81-2.53c-1.35-1.25-2.02-1.87-2.38-2.23c-0.21-0.21-0.78-0.8-1.63-1.53
	c-0.16-0.13-0.26-0.23-0.41-0.35c-0.75-0.61-1.48-1.21-2.4-1.55c-0.57-0.21-1.27-0.47-1.92-0.23c-0.57,0.21-0.8,0.69-1.08,1.3
	c-0.17,0.38-0.52,1.12-0.36,2.09c0.13,0.78,0.53,1.34,0.98,1.96c2.13,2.9,2.7,3.49,2.7,3.49c3.34,3.47,4.03,3.99,5.6,5.68
	c1.78,1.92,2.01,2.45,3.45,4.21c-0.03,0.91-0.06,1.88-0.09,2.91c-0.03,1.08-0.06,1.95-0.09,2.66c-0.14-0.09-0.26-0.18-0.42-0.28
	c-0.42-0.27-0.6-0.38-1.05-0.67c0,0-0.46-0.3-1.01-0.68c-1.03-0.71-2.57-1.84-3.86-2.76c-1.35-0.96-2.5-1.74-3.87-2.15
	c-0.32-0.1-0.81-0.22-1.36-0.1c-0.85,0.18-1.24,0.82-1.33,0.98c-0.53,0.91-0.16,1.94-0.01,2.37c0.25,0.7,0.64,1.18,0.87,1.46
	c1.66,2,3.39,3.2,3.39,3.2c0.21,0.15,1.98,1.6,5.52,4.5c0.59,0.48,1.12,0.93,1.63,1.37c-0.88,1.06-1.74,2.12-2.57,3.21
	c-6.78,8.92-15.12,17.06-21.86,24.44c-3.88,4.25-18.12,20.2-30.5,41.83c-1.62,2.84-7.64,13.51-13.75,29.03
	c-1.32-1.79-2.76-3.97-4.4-6.75c-2.54-4.31-13.76-23.95-17.61-29.54c-2.14-3.1-4.4-5.33-5.23-7.79c-0.11-0.31-0.41-1.26-1.29-1.99
	c-1-0.82-2.24-0.92-2.89-0.97c-0.85-0.07-1.86-0.15-2.74,0.41c-0.46,0.29-0.66,0.62-0.96,0.55l-1.54,0.91
	c-1.26-2.66-2.31-5.09-2.5-6.13c-0.34-1.91-0.05-3.32,0.33-5.18c0.33-1.62,0.55-1.75,1.73-5.31c1.18-3.58,0.88-3.22,1.67-5.36
	c0.89-2.4,1.28-2.91,1.48-4.49c0.07-0.57,0.21-2.03-0.14-3.9c-0.37-1.96-0.98-2.76-1.65-4.55c-0.5-1.34-0.42-1.6-1.19-6.05
	c-0.77-4.46-1.17-6.73-1.81-8.76c-0.52-1.63-1.02-2.82-2.01-5.18c-1.36-3.22-1.72-3.62-2.78-6.39c-0.47-1.22-0.99-2.43-1.42-3.66
	c-0.22-0.6-0.52-1.5-1.14-2.62c-0.46-0.85-0.7-1.28-1.17-1.69c-0.12-0.1-1.33-1.13-2.83-0.94c-0.07,0.01-1.47,0.2-2.19,1.3
	c-0.32,0.49-0.4,1-0.76,1.02c-0.28,0.02-0.47-0.29-0.83-0.59c-0.78-0.67-1.85-0.9-2.61-0.83c-1.27,0.11-1.98,1.04-2.14,1.25
	c-0.16,0.2-0.7,0.97-0.69,2.53c0,1.62,0.58,2.71,1.14,4.07c0.64,1.55,1.07,3.42,1.95,7.15c0.23,0.96,0.48,2.24,0.99,4.8
	c0.21,1.04,0.89,4.46,0.76,4.48c-0.06,0.01-0.22-0.66-0.78-1.99c-0.09-0.22-0.19-0.44-0.23-0.54c-0.33-0.75-0.58-1.3-0.65-1.45
	c-0.37-0.8-0.72-1.67-1.34-3.19c-0.63-1.56-0.94-2.34-1.1-2.77c-0.09-0.25-0.33-0.97-0.75-1.91c-0.08-0.17-0.13-0.29-0.21-0.45
	c-0.39-0.8-0.76-1.57-1.42-2.21c-0.4-0.39-0.91-0.87-1.58-0.92c-0.59-0.04-1,0.29-1.51,0.69c-0.32,0.25-0.94,0.76-1.23,1.64
	c-0.23,0.71-0.13,1.33,0,2.02c0.59,3.25,0.82,3.96,0.82,3.96c1.4,4.19,1.77,4.89,2.4,6.9c0.96,3.07,0.57,2.98,1.88,7.57
	c0.78,2.73,1.17,4.1,1.27,4.39c0.74,2.15,1.34,3.34,1.17,5.06c-0.1,1.03-0.47,2.15-0.72,2.11c-0.12-0.02-0.17-0.31-0.38-0.84
	c-0.27-0.69-0.53-1.03-0.85-1.58c-0.55-0.93-0.47-1.09-1.19-2.57c-0.65-1.35-1.29-2.42-2.17-3.89c-0.22-0.36-0.41-0.69-0.7-1.14
	c-0.25-0.39-0.36-0.55-0.62-0.96c0,0-0.27-0.43-0.58-0.95c-0.59-0.99-1.43-2.51-2.16-3.78c-0.76-1.32-1.42-2.41-2.44-3.27
	c-0.24-0.2-0.61-0.49-1.14-0.59c-0.82-0.16-1.44,0.23-1.59,0.33c-0.86,0.57-0.99,1.59-1.04,2c-0.09,0.68,0.04,1.24,0.12,1.56
	c0.57,2.31,1.55,3.98,1.55,3.98c0.12,0.2,1.03,2.09,2.84,5.87c1.91,3.98,2.81,6.55,3.05,7.23c1.23,3.56,1.28,4.88,1.19,5.86
	c-0.06,0.66-0.16,1.03-0.98,3.58c-1.68,5.26-1.63,4.95-1.74,5.43c-0.37,1.65-1,4.44-0.04,7.68c0.45,1.5,1.08,2.51,2.36,4.55
	c1.37,2.19,5.62,7.76,8.04,10.72c-0.03,0.46-0.28,0.79-0.72,1.3c-0.89,1.03-1.33,1.55-1.89,1.99c-0.98,0.77-1.33,0.76-1.55,1.28
	c-0.25,0.59-0.06,1.2,0.22,1.92c0.69,1.85,1.03,2.78,1.62,3.63c3.45,5.03,6.04,10.54,9.17,15.75c3.67,6.1,4.89,10.43,6.54,14.68
	c4.87,12.57,16,30.93,28.63,52.45c-1.14,9.61-2.05,19.89-3.07,31.57c-1.68,19.2-1.74,34.18-1.72,62.73
	c-3.12-2.06-10.9-7.36-14.38-10.35c-1.96-1.68-2.9-2.87-3.36-3.62c-0.31-0.51-0.38-1.13-0.2-1.7l2.57-8.13
	c0.02-0.06,0.04-0.12,0.05-0.18c0.41-1.89,4.3-15.56,4.78-16.78c0.49-1.24,4.43-5.31,5.1-6.55c0.68-1.24,1.37-4.67,1.67-6.67
	c0.3-2,0.73-9.35,0.55-10.88c-0.09-0.76-0.44-1.29-0.78-1.63c-0.4-0.41-0.64-0.95-0.63-1.52v-0.02l0.11-15.27
	c-0.14-3.06-0.83-8.32-4.2-13.39c-5.42-8.16-14.21-10.48-20.24-12.07c-3.96-1.05-11.3-2.89-20.32-0.62
	c-3.18,0.8-9.92,2.59-15.9,8.67c-5.93,6.02-7.73,12.75-8.3,15.52c-0.01,0.05-0.02,0.09-0.02,0.14c-0.05,0.39-0.32,2.31-0.54,3.46
	c-0.25,1.29-0.08,6.9-0.01,7.51c0.08,0.6,0.1,4.17-0.04,6.33c-0.14,2.16-0.78,2.67-1.55,3.3c-0.77,0.63-0.16,4.58-0.05,6.74
	c0.11,2.16,2.08,12.11,3.08,13.64c1.01,1.53,2.78,2.82,3.79,3.34c1.01,0.52,0.6,5.6,1.46,8.92c0.87,3.32,2.95,14.02,3.45,16.44
	c0.49,2.42-6.03,6.45-6.54,7.46c-0.52,1.01-15.47,10.07-17.51,11.33c-1.62,1-17.16,8.35-24.17,11.82
	c-0.54-6.74-1.38-13.04-2.47-20.01c3.29-8.81,7.29-18.97,13.36-33.17c12.67-29.66,25.17-55.42,29.33-71.43
	c1.14-4.41,1.85-8.85,4.8-15.34c2.51-5.54,4.45-11.31,7.29-16.7c0.48-0.91,0.72-1.87,1.19-3.79c0.19-0.76,0.31-1.38-0.01-1.94
	c-0.28-0.49-0.63-0.44-1.69-1.1c-0.61-0.38-1.11-0.84-2.11-1.76c-0.5-0.46-0.79-0.76-0.87-1.23c-0.07-0.42,0.06-0.75,0.16-1.03
	c0.29-0.83,0.36-1.71,0.59-2.55c0.58-2.15,0.4-2.26,0.8-3.62c0.54-1.83,0.99-2.04,1.49-3.44c0.57-1.59,0.47-3.31,0.24-6.68
	c-0.18-2.65-0.35-2.79-0.55-5.47c-0.25-3.36-0.01-3.47-0.2-5.7c-0.28-3.25-0.85-3.66-1.78-8.42c-0.25-1.28-0.69-3.73-1-6.82
	c-0.4-4.07-0.6-6.1-0.19-8.89c0.37-2.5,0.81-2.7,1.13-5.54c0.26-2.25,0.44-3.99-0.11-6.07c-0.42-1.57-1.19-4.49-3.72-5.3
	c-1.34-0.43-3.04-0.23-4.33,0.67c-1.41,1-1.82,2.5-2.12,3.61c-0.28,1.02-0.15,1.29-0.24,4.11c-0.08,2.51-0.16,1.81-0.3,5.01
	c-0.13,2.85-0.06,3.3-0.53,3.96c-0.9,1.26-2.53,1.58-3.61,1.8c-2.49,0.49-4.48-0.28-5.39-0.64c-0.14-0.06-0.02-0.01-3.5-2.21
	c-1.3-0.82-2.07-1.3-2.09-2.08c-0.01-0.36,0.14-0.57,0.62-1.33c1.21-1.92,1.82-2.9,1.93-3.82c0.04-0.34,0.16-1.27-0.4-2.08
	c-0.75-1.09-2.19-1.18-2.35-1.19c-1.18-0.06-2.31,0.58-4.41,2c-1.17,0.78-1.61,1.34-2.42,1.34c-1.29,0.01-2.1-1.39-3-2.64
	c-0.66-0.92-2.26-2.42-5.44-5.42c-2.8-2.64-4.94-4.04-6.91-5.31c-3.76-2.43-5.02-2.57-5.99-2.17c-0.99,0.41-1.88,1.45-1.92,2.47
	c-0.06,1.41,1.51,2.02,3.01,3.67c1.26,1.38,1.77,2.95,2.8,6.08c1.59,4.85,1.07,5.95,2.06,9.04c1.24,3.88,3.39,6.25,6.27,9.45
	c0.8,0.89,3.7,3.48,9.47,8.64c2.96,2.65,3.61,3.22,4.55,4.46c2.29,3.03,3.11,5.88,3.91,8.68c0,0,1.08,3.73,0.8,10.36
	c-0.02,0.41-0.08,1.51-0.57,1.68c-0.29,0.1-0.53-0.2-1.02-0.44c-0.94-0.46-1.93-0.26-2.77-0.09c-0.64,0.13-1.85,0.37-2.75,1.3
	c-0.79,0.82-0.98,1.8-1.05,2.12c-0.55,2.54-2.53,5.02-4.3,8.34c-3.18,5.99-12.05,26.8-14.07,31.38
	c-6.32,14.28-9.55,14.03-16.71,24.78c-0.12-1.32-0.26-2.64-0.44-3.94c0.06-0.1,0.11-0.22,0.17-0.32
	c4.81-8.15,8.67-17.13,10.61-28.59c1.63-9.61,2.8-18.64,1.96-26.36c0-0.01,0-0.01,0-0.02c0,0-0.01-0.04-0.02-0.09
	c-0.21-1.9-2.77-14.63-2.85-14.87c-1.49-4.52-2.64-7.34-7.29-6.33c-2,0.43-4.09-0.14-5.6-1.52c0,0-3.6-6.39-7.86-6.38
	c-2.25,0-2.94,0.82-4.69,2.21c-2.39,1.89-5.8,1.8-8.16-0.13c-0.49-0.4-3.56-3.54-7.66-2.88c-3.01,0.85-3.8,4.5-7.89,5.47
	c-2.04,0.48-4.03-1.06-4.54-3.1l-10.52-42.33c-1.05-4.07-5.24-6.54-9.31-5.5c-4.07,1.05-6.54,5.24-5.5,9.31
	c0,0,9.35,47.97,11.41,58.64c0.25,1.29-1.29,2.15-3.91,2.9c-5.61,1.61-6.78,5.31-6.35,9.65l3.95,22.26
	c1.2,5.89,3.43,11.54,6.63,16.64c4.52,7.23,8.73,13.06,10.91,17.75c2.14,5.11,0.7,14.55,0.7,14.55l0.53,0.01
	c-0.03,0.27-0.05,0.51-0.08,0.79c-0.8,8.18-1.21,14.87-1.41,18.06c-0.42,6.87-0.31,7.32-0.72,13c-0.11,1.51-0.58,8.01-1.2,13.09
	c-1.05,8.53-2.67,14.18-4.57,21.6c0,0-3.32,12.98-6.63,29.84c-1.57-2.17-3.4-4.3-5.11-6.14c-0.18-1.25-0.24-2.64-0.8-5.48
	c-0.35-1.78-0.83-4.17-1.84-7.02c-1.15-3.24-1.69-3.39-2.42-5.98c-0.53-1.89-0.68-3.54-0.94-6.75c-0.52-6.42,0.09-6.86-0.62-9.95
	c-0.73-3.18-1.38-2.67-2.2-6.41c-0.4-1.81-0.71-4.04-1.09-6.72c-0.43-3.1-0.37-3.25-0.67-3.98c-0.95-2.37-2.34-2.72-2.25-4.64
	c0.05-0.96,0.4-0.99,0.7-2.9c0.16-1.05,0.32-2.05,0.1-3.07c-0.34-1.56-1.19-1.43-1.61-2.64c-0.74-2.08,1.43-3.48,1.45-6.95
	c0.01-1.56-0.43-2.81-0.97-4.38c-0.62-1.78-0.93-2.66-1.32-3.16c-0.29-0.36-0.63-0.68-0.62-1.24c0.02-0.78,0.72-1.32,1.16-1.92
	c1.18-1.59,0.69-3.73-0.13-7.3c-0.58-2.56-1.21-3.4-1.48-3.73c-0.83-1-1.74-1.54-1.74-1.54c-0.34-0.2-1.21-0.66-1.21-0.66
	c0.15-0.3,0.37-0.75,0.65-1.28c1.31-2.46,1.79-2.69,2.25-3.76c0.86-1.98,0.35-3.87-0.02-5.26c-0.37-1.4-0.56-2.12-1.24-2.64
	c-0.59-0.46-1.3-0.57-1.52-1.36c-0.11-0.39,0.02-0.53-0.09-1.13c-0.14-0.72-0.47-1.18-0.62-1.4c-0.65-0.9-1.22-0.81-1.67-1.33
	c-0.73-0.85-0.21-2.31,0.08-3.99c0.33-1.89-0.01-1.89-0.03-5.87c-0.02-3.8,0.28-6.59,0.45-8.64c0.54-6.41,0.8-16.77,0.72-23.08
	c-0.08-7.3-0.56-4.45-2.26-27.01c-0.82-10.94-0.7-11.5-1.26-15.61c-0.3-2.19-0.9-6.17-1.2-11.76c-0.22-4.22-0.1-5.97-0.02-6.82
	c0.4-4.33,1.3-5.35,2.41-10.48c1.13-5.22,1.36-9.49,1.56-13.36c0.19-3.59,0.04-4.44,0.36-8.32c0.21-2.56,0.41-5.03,0.96-8.04
	c1.29-7.01,3.82-13.78,3.82-13.78s0.78-2.1,1.55-7.77c0.05-0.35,0.15-1.15-0.18-1.95c-0.25-0.61-0.64-0.94-0.99-1.24
	c-0.67-0.57-1.27-1.09-2.11-0.93c-0.76,0.14-1.32,0.77-1.66,1.15c-0.78,0.87-1.08,1.79-1.3,2.49c-0.87,2.74-1.3,4.11-1.38,4.45
	c-0.55,2.29-1.05,3.94-1.83,6.49c-1.36,4.45-1.39,3.49-2.06,6.08c0,0-0.45,1.73-2.01,5c-0.09,0.2-0.36,0.75-0.91,1.15
	c-0.4,0.29-1.09,0.6-1.49,0.39c-0.55-0.29-0.37-1.43-0.19-2.55c0.55-3.45,0.83-5.17,0.98-5.89c0.17-0.81,0.35-2.47,0.72-5.8
	c0.51-4.6,0.37-4.36,0.73-7.44c0.34-2.9,0.7-5.13,1.01-8.57c0.29-3.25-0.12-0.22-0.11-4.52c0-0.46,0.01-1.18-0.4-1.82
	c-0.46-0.71-1.17-0.94-1.51-1.06c-0.35-0.11-1.24-0.4-2.35,0c-1.28,0.46-2.03,1.55-2.36,2.02c-0.41,0.59-0.9,1.5-1.28,3.86
	c-0.26,1.65-0.2,2.32-0.3,4.19c-0.15,2.71-0.49,4.85-0.71,6.26c-0.36,2.25-0.47,2.22-0.85,4.72c-0.19,1.28-0.32,2.28-0.56,4.28
	c-0.19,1.58-0.49,3.17-0.63,4.75c-0.09,1-0.48,2-0.66,3c-0.05,0.3-0.14,0.8-0.5,1.1c-0.43,0.35-0.98,0.22-1.08,0.19
	c-0.58-0.15-0.88-0.7-1.07-1.23c-0.51-1.44-0.27-2.84-0.18-3.97c0.12-1.53-0.14-1.27-0.42-4.84c-0.17-2.2-0.1-2.66-0.22-6.02
	c-0.22-6.42-0.51-5.46-0.4-7.89c0.11-2.5,0.1-4.99,0.28-7.5c0.03-0.4,0.13-1.65-0.46-2.84c-0.4-0.81-0.91-1.19-1.03-1.27
	c-0.22-0.15-1-0.69-2.21-0.56c-0.18,0.02-1.49,0.17-2.63,1.28c-0.59,0.57-1.14,1.41-1.59,3.39c-0.52,2.3-0.42,4-0.35,5.65
	c0,0,0.14,3.42,0.15,6.65c0.01,3.72-0.22,3.64-0.17,7.21c0.04,3.37,0.06,5.05,0.41,6.48c0.31,1.28,0.43,2.64,0.7,3.94
	c0,0,0.11,0.53,0.11,1.81c0,0.91-0.09,1.19-0.28,1.36c-0.36,0.33-0.96,0.13-1.12,0.08c-0.76-0.24-1.12-0.92-1.21-1.12
	c-1.68-3.34-2.22-5.3-2.22-5.3c-0.65-2.37-0.76-1.48-2.11-5.36c-1.22-3.51-1.83-5.26-2.15-7.64c-0.12-0.89-0.3-2.66-0.87-4.97
	c-0.27-1.12-0.59-2.18-1.51-3c-0.4-0.35-1.02-0.9-2.03-0.87c-1.31,0.04-2.36,1.02-2.7,1.37c-1.2,1.25-1.41,2.8-1.54,3.87
	c-0.25,2.04,0.26,2.75,0.93,6.44c0.34,1.86,0.18,1.52,0.63,4.33c0.24,1.48,0.61,3.77,1.15,6.09c1,4.32,1.47,3.93,2.5,8.29
	c0.66,2.81,0.48,3.04,1.26,6.11c0.02,0.06,0.44,1.72,0.85,3.98c0.42,2.27,0.43,2.99,0.22,3.85c-0.3,1.2-0.91,2.09-1.59,3.08
	c-0.85,1.25-1.3,1.91-2.09,2.31c-0.5,0.25-1.04,0.35-3.21-0.09c-1.8-0.36-2.74-0.55-4.09-1.08c-1.73-0.69-1.72-0.98-3.62-1.83
	c-1.18-0.53-2.42-1.09-4.13-1.42c-1.51-0.29-3.46-0.64-5.97,0.11c-1.65,0.5-2.82,1.26-3.56,1.74c-1.39,0.91-2.63,1.73-3.12,3.14
	c-0.08,0.22-0.42,1.19-0.04,2.07c0.34,0.8,1.07,1.06,1.36,1.16c0.41,0.15,0.78,0.16,2.06,0.06c1.69-0.14,1.85-0.23,2.42-0.24
	c0.66-0.02,1.33,0.09,3.08,0.88c2.09,0.94,3.56,1.88,3.69,1.97c3.43,2.21,5.14,3.32,5.63,3.66c2.68,1.88,2.66,2.01,6.39,4.72
	c2.74,1.98,2.71,1.88,4.69,3.36c1.65,1.23,2.35,1.81,4.88,3.74c0.3,0.23,1.9,1.17,3.59,2.72c0.51,0.47,0.92,0.89,1.26,1.53
	c0.7,1.33,0.64,2.73,0.62,3.27c-0.13,3.39,0.49,6.66,0.21,10.07c-0.74,9.09,0.15,11.08-0.99,23.62
	c-1.23,13.61-2.35,11.98-3.45,25.26c-0.93,11.18-0.21,13.11-1.45,20.25c-0.68,3.94-1.37,6.02-0.74,9.01
	c0.62,2.95,2.15,5.09,0.93,7.49c-0.59,1.15-1.33,1.43-1.74,2.81c-0.41,1.38,0.1,1.85,0.22,3.92c0.09,1.54-0.11,2.69-0.51,4.99
	c-0.25,1.42-0.48,2.74-1.04,4.42c-0.99,2.94-1.65,2.94-2.23,5.13c-0.24,0.9-0.06,0.65-0.43,5.36c-0.16,2.05-0.24,3.08-0.38,4.05
	c-0.35,2.49-0.61,2.71-0.6,4.02c0,1.66,0.41,2.01,0.66,3.83c0.34,2.42-0.25,2.78-0.07,4.75c0.19,2.05,1.32,3.92,3.57,7.65
	c0.96,1.59,1.38,2.11,1.48,3.28c0.14,1.71-0.63,2.42-0.82,4.6c-0.04,0.43-0.04,0.79,0.6,4.53c0.68,3.93,0.8,4.22,0.92,5.68
	c0.02,0.24,0.06,1.39,0.14,3.71c0.09,2.58,0.09,2.96-0.01,3.59c-0.28,1.75-0.77,2.07-0.98,3.57c-0.13,0.91-0.06,1.63,0.11,2.47
	c-1.8-0.88-3.27-1.63-4.04-2.1c-2.86-1.77-12.07-7.68-16.08-10.95c-2.12-1.73-3.15-2.97-3.66-3.75c-0.34-0.53-0.43-1.19-0.25-1.8
	l2.51-8.68c0.02-0.07,0.03-0.13,0.05-0.2c0.38-2.02,4.15-16.6,4.62-17.9c0.48-1.32,4.55-5.75,5.24-7.07
	c0.68-1.33,1.33-4.98,1.59-7.11c0.27-2.13,0.53-9.92,0.3-11.54c-0.12-0.81-0.5-1.36-0.86-1.7c-0.44-0.42-0.7-0.99-0.71-1.59l0-0.02
	l-0.29-16.18c-0.22-3.24-1.1-8.79-4.8-14.08c-5.96-8.5-15.33-10.73-21.76-12.26c-4.22-1-12.05-2.76-21.55-0.12
	c-3.35,0.93-10.44,3-16.62,9.6c-6.12,6.54-7.85,13.72-8.39,16.67c-0.01,0.05-0.02,0.1-0.02,0.15c-0.05,0.42-0.28,2.45-0.48,3.68
	c-0.23,1.37,0.1,7.32,0.19,7.96c0.1,0.64,0.21,4.41,0.12,6.71c-0.09,2.3-0.76,2.85-1.56,3.54c-0.8,0.69-0.05,4.86,0.13,7.15
	c0.18,2.29,2.52,12.77,3.63,14.37c1.11,1.6,3.02,2.91,4.11,3.43c1.09,0.52,0.78,5.92,1.79,9.41c1.01,3.49,3.5,14.78,4.08,17.33
	c0.58,2.55-6.22,6.99-6.74,8.08c-0.26,0.55-4.37,3.37-8.64,6.2c0.38-2.6,0.47-4.28,0.02-5.85c-0.6-2.04-1.33-2.17-1.96-4.73
	c-0.47-1.92-0.2-2.44-0.86-4.1c-0.52-1.32-0.86-1.44-2.2-3.79c-0.52-0.92-1.01-1.92-1.99-3.91c-2.24-4.57-1.97-4.4-2.56-5.2
	c-1.45-1.96-2.11-1.71-4.27-4.25c-1.24-1.46-1.99-2.69-2.81-4.02c-1.32-2.15-1.98-3.23-2.5-4.8c-0.7-2.12-0.38-2.81-1.34-4.02
	c-0.97-1.22-1.82-1.21-2.87-2.12c-2.18-1.92-1.5-4.67-2.05-7.88c-0.56-3.25-2.07-5.06-4.33-8.74c-4.08-6.67-4.13-8.9-9.51-19.74
	c-6.39-12.87-6.86-10.8-13.51-23.96c-6.13-12.12-6.03-14.48-10.39-23.29c-1.64-3.31-2.32-6.83-3.79-10.18
	c-0.23-0.53-0.86-1.9-0.68-3.52c0.08-0.78,0.33-1.36,0.65-2.03c1.08-2.23,2.31-3.8,2.53-4.15c1.77-2.95,2.24-3.8,3.41-5.69
	c1.4-2.27,1.41-2.16,3.37-5.24c2.67-4.2,2.6-4.33,4.53-7.28c0.35-0.54,1.63-2.33,4.19-5.91c0.1-0.14,1.2-1.67,2.92-3.44
	c1.44-1.48,2.07-1.86,2.74-2.1c0.58-0.21,0.78-0.18,2.53-0.72c1.32-0.4,1.68-0.57,2.04-0.88c0.25-0.22,0.88-0.77,0.91-1.71
	c0.03-1.03-0.69-1.87-0.86-2.06c-1.05-1.21-2.62-1.54-4.38-1.91c-0.94-0.19-2.41-0.49-4.26-0.33c-2.82,0.24-4.64,1.37-6.04,2.26
	c-1.59,1.01-2.61,2.06-3.58,3.07c-1.56,1.61-1.43,1.9-2.9,3.28c-1.14,1.08-2,1.63-3.67,2.71c-2.01,1.3-2.59,1.42-3.19,1.36
	c-0.95-0.09-1.67-0.58-3.01-1.49c-1.07-0.73-2.04-1.38-2.82-2.46c-0.56-0.77-0.83-1.5-1.31-3.94c-0.48-2.44-0.72-4.26-0.73-4.33
	c-0.44-3.39-0.71-3.55-1.16-6.63c-0.71-4.79-0.08-4.57-0.8-9.31c-0.38-2.55-0.92-4.98-1.27-6.57c-0.66-3-0.69-2.6-1.09-4.6
	c-0.8-3.97-0.57-4.88-1.63-6.83c-0.56-1.03-1.39-2.5-3.08-3.27c-0.48-0.22-1.93-0.79-3.26-0.3c-1.02,0.37-1.44,1.17-1.69,1.68
	c-0.59,1.19-0.49,2.38-0.32,3.61c0.35,2.55,0.87,4.39,1.1,5.33c0.63,2.51,0.72,4.51,0.88,8.51c0.19,4.43-0.28,3.58,0.02,6.21
	c0,0,0.24,2.18-0.12,6.19c-0.02,0.24-0.11,1.06-0.77,1.6c-0.14,0.11-0.66,0.55-1.16,0.36c-0.26-0.1-0.45-0.34-0.82-1.25
	c-0.51-1.28-0.61-1.86-0.61-1.86c-0.25-1.41-0.66-2.82-0.86-4.23c-0.22-1.57-0.87-3.27-2.17-6.66c-1.38-3.61-1.58-3.42-3.04-7.16
	c-1.27-3.24-2.49-6.73-2.49-6.73c-0.58-1.68-1.16-3.42-2.6-5.52c-1.24-1.81-2.12-2.43-2.94-2.77c-1.58-0.66-2.96-0.29-3.15-0.24
	c-1.27,0.36-1.84,1.2-2,1.45c-0.09,0.13-0.45,0.72-0.53,1.68c-0.11,1.43,0.48,2.65,0.67,3.03c1.19,2.45,2.16,4.95,3.27,7.41
	c1.08,2.39,0.41,1.55,2.74,8.07c1.22,3.42,1.48,3.85,2.18,6.13c1.14,3.69,0.77,3.53,1.5,5.02c0.54,1.1,1.34,2.41,1.4,4.05
	c0.02,0.6-0.06,1.27-0.58,1.65c-0.09,0.06-0.59,0.42-1.16,0.24c-0.49-0.15-0.77-0.62-0.94-0.9c-0.57-0.93-1.37-1.78-1.85-2.75
	c-0.76-1.53-1.7-3-2.52-4.51c-1.04-1.91-1.56-2.87-2.27-4.07c-1.38-2.36-1.48-2.28-2.73-4.4c-0.78-1.32-1.98-3.34-3.21-5.99
	c-0.85-1.83-1.05-2.53-1.97-4.08c-1.31-2.21-2.18-2.93-2.82-3.36c-0.52-0.35-1.7-1.13-3.17-1.09c-1.28,0.04-2.05,0.68-2.36,0.94
	c-0.3,0.25-0.92,0.77-1.1,1.66c-0.16,0.81,0.13,1.53,0.32,1.99c1.72,4.31,0.1,1.43,1.68,4.58c1.68,3.33,2.93,5.42,4.42,8.19
	c1.59,2.95,1.35,2.76,3.69,7.17c1.69,3.19,2.54,4.78,3.03,5.53c0.44,0.67,1.4,2.29,3.33,5.52c0.63,1.06,1.26,2.13,0.82,2.64
	c-0.32,0.37-1.13,0.33-1.65,0.2c-0.71-0.18-1.2-0.63-1.37-0.79c-2.86-2.66-4-4.22-4-4.22c-1.71-2.34-1.35-1.36-4.49-5.28
	c-1.8-2.25-2.96-3.7-4.42-5.78c-0.21-0.31-1.19-1.51-3.15-3.92c-0.5-0.61-1.16-1.41-2.3-1.98c-0.49-0.25-1.3-0.65-2.12-0.49
	c-0.9,0.17-1.3,0.93-1.74,1.77c-0.23,0.44-0.49,0.93-0.5,1.64c-0.01,0.93,0.4,1.69,0.59,2.02c3.02,5.39,4.64,7.18,4.64,7.18
	s5.23,5.78,9.32,12.3c1.75,2.8,2.93,5.2,4.16,7.68c1.86,3.77,2.05,4.68,3.67,8.2c1.74,3.79,3.67,7.99,6.88,12.77
	c3.16,4.7,4.47,5.37,6.59,9.55c0.42,0.82,1.24,2.52,2.69,6.84c1.93,5.72,2.9,9.95,3.47,12.27c1.07,4.34,1.41,4.86,4.94,16.16
	c7.27,23.29,5.66,20.62,8.48,27.98c2.44,6.36,6.82,16.65,9.91,22.86c0.99,1.99,2.4,4.67,3.89,8.49c0.23,0.59,0.41,1.08,0.57,1.52
	c-1.42-0.6-2.66-0.94-3.49-1.16c-5.58-1.44-10.13-0.33-12.58,0.3c-3.74,0.96-9.19,2.36-12.58,7.38c-2.11,3.13-2.56,6.37-2.66,8.27
	v9.45v0.01c0,0.35-0.15,0.69-0.4,0.94c-0.21,0.21-0.43,0.53-0.49,1c-0.12,0.95,0.12,5.49,0.3,6.73c0.18,1.24,0.59,3.37,1,4.14
	c0.41,0.77,2.84,3.31,3.13,4.08c0.29,0.76,2.64,9.23,2.88,10.4c0.01,0.04,0.02,0.08,0.03,0.11l1.56,5.04
	c0.11,0.35,0.07,0.74-0.13,1.05c-0.29,0.46-0.88,1.2-2.1,2.23c-2.3,1.95-7.62,5.49-9.27,6.56c-0.88,0.57-3.42,1.83-5.85,3.01
	c-0.27-0.92-0.59-2.06-1-3.64c-1.98-7.62-1.9-9.18-4.27-18.5c-0.02-0.09-0.94-3.68-2.08-8.5c-0.9-3.81-1.13-4.91-1.28-5.73
	c-0.3-1.56-0.8-4.4-1.17-8.02c-0.3-2.87-0.12-2.38-0.46-6.03c-0.3-3.17-0.5-5.18-0.7-6.48c0.2-0.89-0.1-1.89-0.67-2.64
	c-0.2-0.72-0.32-1.41-0.21-2.28c0.2-1.48,0.97-2.67,1.32-3.2c0.18-0.27,0.69-1.03,1.68-1.95c1.27-1.18,2.33-1.7,3.44-2.34
	c2.78-1.62,2.26-1.93,4.84-3.47c2.34-1.39,4.2-1.98,5.62-2.42c2.56-0.8,3.49-0.69,3.87-0.62c0.98,0.16,1.39,0.49,2.36,0.39
	c0.38-0.04,1.86-0.18,2.49-1.37c0.55-1.05,0.08-2.22-0.06-2.55c-0.29-0.7-0.75-1.22-1.48-1.84c-2.2-1.84-4.49-2.53-4.74-2.61
	c-2.13-0.63-3.83-0.53-5.37-0.43c-1.98,0.12-2.97,0.18-4.08,0.73c-0.62,0.31-1.27,0.75-1.48,0.55c-0.2-0.18,0.14-0.75,0.4-1.5
	c0.45-1.25,0.38-2.05,0.49-3.11c0.13-1.17,0.76-2.76,2.03-5.95c0.54-1.34,1.02-2.53,1.78-4.11c0.69-1.44,1.11-2.12,1.9-3.59
	c1.18-2.18,2.2-4.06,3.05-6.01c0.51-1.17,1.1-3.16,2.3-7.14c1.68-5.61,1.34-4.93,1.95-6.62c0.54-1.5,1.18-3.07,1.74-5.54
	c0.39-1.74,0.52-2.95,0-4.23c-0.2-0.49-0.69-1.72-1.91-2.21c-1.18-0.48-2.28,0.05-2.54,0.17c-1.02,0.49-1.51,1.35-1.77,1.82
	c-1.28,2.32-1.92,3.49-2.76,5.5c-1.63,3.93-1.92,2.98-3.14,6.22c-0.53,1.4-1.13,3.3-2.74,5.16c-0.27,0.31-1.2,1.38-1.56,1.17
	c-0.25-0.14-0.11-0.85-0.05-1.2c0.29-1.63,0.01-3.35,0.07-5.01c0.05-1.31-0.39-3.21-1.26-7c-0.71-3.08-1.36-5.25-1.94-7.17
	c-0.89-2.94-1.43-4.35-2.12-5.79c-1.59-3.32-2.62-4-3.35-4.3c-0.22-0.09-1.89-0.75-3.14,0.09c-1.05,0.71-1.2,2.06-1.27,2.61
	c-0.08,0.73,0.02,1.28,0.16,1.95c0.45,2.22,0.91,4.43,1.05,5.11c0.27,1.32,0.11,0.83,0.64,3.96c0.37,2.18,0.47,2.56,0.72,4.19
	c0.32,2.09,0.48,3.13,0.45,3.82c-0.03,0.61-0.35,1.88-0.98,4.38c-0.75,2.95-0.66,2.38-0.76,2.9c-0.33,1.76-0.25,2.59-0.98,3.34
	c-0.42,0.43-1.12,0.86-1.56,0.63c-0.16-0.08-0.25-0.24-0.54-0.97c-0.28-0.71-0.41-1.07-0.5-1.38c-0.14-0.5-0.28-0.76-1.65-3.24
	c-1.32-2.41-1.42-2.58-1.74-2.98c-0.75-0.93-1.49-1.52-1.82-1.76c-1.14-0.86-2.13-1.21-3.19-1.6c-4.81-1.78-4.94-2.11-7.13-2.59
	c-1.21-0.26-2.36-0.42-3.67-0.18c-0.82,0.15-2.09,0.39-2.44,1.32c-0.26,0.69,0.12,1.42,0.45,2.08c0.16,0.31,1.08,2.05,3.04,2.9
	c0.94,0.41,1.34,0.27,2.22,0.86c0.57,0.38,0.66,0.61,1.36,1.32c1.67,1.69,2.37,1.63,3.27,2.93c0.46,0.67,0.15,0.5,0.86,1.78
	c0.98,1.77,2.33,3.46,2.33,3.46c0.61,0.76,1.07,1.25,0.94,1.41c-0.1,0.14-0.54,0.01-0.84-0.17c-0.35-0.21-0.52-0.5-0.71-0.79
	c-0.31-0.46-0.72-0.85-1.07-1.29c-1.15-1.45-1.73-2.18-2.03-2.52c-0.92-1.04-1.51-1.71-2.46-2.29c-1.22-0.75-1.57-0.45-3.31-1.32
	c-0.88-0.44-1.47-0.85-2.3-1.43c-0.99-0.7-2.08-1.57-3.61-2.46c-0.29-0.17-0.77-0.44-1.4-0.46c-0.19-0.01-0.85-0.02-1.41,0.42
	c-0.73,0.57-0.77,1.51-0.78,1.83c-0.03,0.67,0.16,1.32,0.78,2.4c0.97,1.7,2.06,2.83,2.4,3.17c1.31,1.33,3.28,2.94,4,3.53
	c0.21,0.18,0.68,0.55,1.12,1.18c0.41,0.58,0.34,0.74,0.77,1.59c0.47,0.94,0.93,1.85,1.75,2.65c0.16,0.16,0.35,0.32,0.47,0.6
	c0.2,0.47,0.05,0.86-0.12,1.53c-0.36,1.43-0.54,2.14-0.38,2.77c0.05,0.19,0.17,0.57,0.12,1.07c-0.03,0.33-0.12,0.57-0.15,0.65
	c-0.2,0.52-0.37,1.05-0.53,1.58c-0.6-0.29-1.61-0.71-2.81-0.55c-1.38,0.17-2.15,0.99-2.46,1.32c-0.27,0.29-0.38,0.48-1.12,2.16
	c-1,2.27-0.98,2.29-1.22,2.65c-0.7,1.07-0.99,0.96-1.66,2.11c-0.38,0.64-0.54,1.1-0.83,1.08c-0.25-0.01-0.39-0.34-0.9-1.32
	c-0.91-1.74-0.92-1.62-1.09-2.09c-0.28-0.79-0.34-1.4-0.41-2.07c-0.04-0.4-0.09-1.11,0.02-2.49c0.08-1.06,0.18-1.53,0.35-2.76
	c0.26-1.92,0.4-2.88,0.39-3.66c-0.01-1.78-0.02-2.74-0.75-3.78c-0.77-1.09-2.47-2.43-4.41-2.3c-1.49,0.1-2.36,1-2.5,1.14
	c-0.68,0.73-0.66,1.44-0.84,2.84c-0.04,0.28-0.32,1.56-0.9,4.13c-0.72,3.23-0.81,2.73-1.11,4.48c-0.34,2.02-0.54,2.25-0.83,3.46
	c-0.08,0.35-0.26,1.07-0.42,1.05c-0.11-0.01-0.15-0.34-0.25-0.79c-0.12-0.51-0.2-0.62-0.56-1.64c-0.71-1.99-1.08-3.43-1.73-5.05
	c-0.94-2.34-1.52-3.78-3.07-5.26c-1.67-1.61-3.45-2.27-3.84-2.42c-1.94-0.7-5.14-1.22-6.03-0.08c-0.41,0.53-0.22,1.27-0.09,1.8
	c0.25,0.97,0.8,1.5,1.46,2.33c0.18,0.23,1.62,2.08,2.23,3.96c0.44,1.36,0.12,1.72,0.29,3.35c0.24,2.22,1.05,3.49,1.72,5.11
	c1.54,3.7,0.47,4.68,1.42,8.68c0.75,3.15,1.48,2.81,4.37,9.04c1.83,3.95,3.21,6.98,3.95,11.11c0.8,4.46,0.28,7.06,0.01,8.17
	l-5.67,16.6c-0.66,1.16-0.78,1.49-1.85,3.24c-1.9,3.1-3.58,5.44-4.52,6.72c-0.23,0.31-0.5,0.67-0.95,1.25
	c-1.17-15.74-1.95-24.84-3.79-36.17c-3.58-21.98-5.9-36.26-13.78-54.08c-5.44-12.31-11.09-20.8-12.46-22.83
	c-9.02-13.36-18.97-22.97-21.68-25.53c-4.7-4.44-10.47-9.29-15.27-14.72c-0.63-0.71-1.29-1.41-1.95-2.09
	c-0.25-0.54-0.48-1.11-0.68-1.75c-0.33-1.05-0.38-1.65-0.68-4.41c-0.57-5.38-0.85-8.09-1.03-8.91c-0.64-2.95-1.12-5.15-2.84-7.49
	c-1.37-1.86-2.23-2.05-4.37-4.99c-1.38-1.9-2.07-2.85-2.35-4.13c-0.33-1.53-0.02-2.65-0.86-3.22c-0.61-0.41-1.59-0.37-2.24,0
	c-0.64,0.37-1.09,1.12-1.25,4.23c-0.09,1.63-0.17,3.4,0.18,6.07c0.4,3.04,0.6,4.55,0.86,5.31c0.02,0.07,0.05,0.14,0.07,0.21
	c-0.06-0.12-0.13-0.23-0.24-0.34c-0.08-0.08-0.44-0.41-1-0.38c-0.36,0.02-0.64,0.18-0.83,0.3c-0.79,0.49-1.37,1.18-2.04,2.01
	c-0.65,0.8-1.41,1.76-1.94,2.39c-0.27,0.33-0.51,0.6-0.51,0.6c-0.23,0.26-0.32,0.36-0.54,0.6c-0.25,0.28-0.42,0.49-0.61,0.71
	c-0.17,0.2-0.32,0.38-0.47,0.56c-0.1-0.13-0.21-0.25-0.33-0.35c-0.48-0.38-1.05-0.51-1.6-0.53c0.22-0.45,0.52-1.05,0.89-1.81
	c1.49-3.02,1.22-3,2.27-5.01c0.69-1.32,1.03-1.77,2.52-4.5c0,0,0.25-0.47,1.08-2.64c0.18-0.46,0.33-0.88,0.28-1.39
	c-0.07-0.63-0.41-1.04-0.58-1.24c-0.28-0.33-0.5-0.59-0.89-0.62c-0.45-0.04-0.84,0.25-1.16,0.48c-0.52,0.37-0.87,0.87-1.23,1.38
	c-0.07,0.1-0.12,0.18-0.2,0.29c-0.4,0.6-0.66,1.07-0.76,1.23c-0.16,0.28-0.47,0.79-1.1,1.8c-0.61,0.99-0.96,1.55-1.31,2.06
	c-0.07,0.1-0.31,0.45-0.63,0.93c-0.04,0.06-0.13,0.2-0.22,0.35c-0.54,0.86-0.75,1.3-0.78,1.29c-0.08-0.02,0.83-2.31,1.11-3
	c0.68-1.71,1.03-2.56,1.31-3.2c1.09-2.48,1.63-3.72,2.26-4.72c0.55-0.88,1.08-1.58,1.31-2.68c0.22-1.07-0.03-1.65-0.11-1.8
	c-0.07-0.16-0.41-0.87-1.23-1.07c-0.49-0.12-1.23-0.07-1.83,0.32c-0.27,0.17-0.44,0.36-0.62,0.32c-0.23-0.05-0.21-0.4-0.36-0.77
	c-0.32-0.83-1.21-1.09-1.26-1.11c-0.96-0.27-1.89,0.31-1.98,0.37c-0.36,0.23-0.58,0.51-1,1.04c-0.56,0.71-0.88,1.29-1.1,1.69
	c-0.46,0.8-0.96,1.58-1.44,2.38c-1.07,1.8-1.37,2.04-2.7,4.12c-0.97,1.52-1.46,2.29-2.03,3.36c-0.7,1.33-1.27,2.85-2.39,5.83
	c-1.11,2.97-1.1,3.16-1.61,4.03c-0.68,1.17-1.19,1.65-1.7,2.96c-0.49,1.25-0.59,2.26-0.63,2.66c-0.09,1.1,0.1,1.49,0.36,3.22
	c0.22,1.55,0.08,1.27,0.36,3.84c0.22,1.96,0.34,2.48,0.39,3.13c0.01,0.13,0.02,0.39,0.02,0.68c0,0,0.01,1.78-0.49,3.59
	c-0.71,2.56-3.14,3.59-4.37,6.64c-0.11,0.26-0.19,0.54-0.28,0.82c-1.95,2.32-3.88,4.56-5.62,6.7c-2.19,2.69-9.84,12.26-16.73,25.21
	c-1.53-7.25-3.49-14.59-6.08-22.42c-6.26-18.91-13.41-32.21-15.14-35.39c-11.43-20.96-24.79-36.53-28.43-40.67
	c-6.32-7.2-14.17-15.17-20.51-23.85c-0.83-1.14-1.71-2.25-2.59-3.36c-0.29-0.83-0.55-1.71-0.75-2.67c-0.33-1.59-0.33-2.49-0.35-6.6
	c-0.05-8.01-0.08-12.04-0.22-13.27c-0.52-4.44-0.9-7.74-3.12-11.43c-1.76-2.93-3.01-3.33-5.75-7.97c-1.77-3-2.66-4.5-2.88-6.42
	c-0.26-2.3,0.36-3.91-0.81-4.87c-0.85-0.69-2.3-0.77-3.32-0.31c-1,0.45-1.78,1.5-2.48,6.05c-0.37,2.38-0.76,4.99-0.62,8.97
	c0.15,4.53,0.23,6.8,0.49,7.95c0.36,1.56,0.91,3.16-0.01,4.13c-0.57,0.61-1.33,0.55-2.78,0.87c-2.61,0.58-3.91,0.97-4.7,1.91
	c-0.11,0.13-1.05,1.28-0.7,2.61c0.25,0.99,1.08,1.57,1.37,1.77c0.82,0.57,2.02,0.81,4.41,1.26c0.32,0.06,0.57,0.11,0.76,0.15
	c-0.04,0.03-0.09,0.05-0.13,0.09c-1.76,1.49-1.6,4.5-1.19,10.34c-0.45,0.57-1.01,1.15-1.74,1.67c-0.93,0.67-2.33,1.67-3.97,1.45
	c-0.86-0.12-1.17-0.49-3.53-2.42c-2.64-2.16-2.15-1.61-4.2-3.33c-2.31-1.94-2.44-2.23-3.45-2.74c-1.1-0.56-2.58-1.32-4.37-0.97
	c-1.63,0.32-2.98,1.47-3.58,2.78c-1.14,2.49,0.65,5.14,1.61,6.57c1.27,1.88,2.79,2.99,4.76,4.39c2.49,1.77,2.95,1.58,5.21,3.08
	c2.51,1.67,3.99,3.26,6.95,6.45c2.24,2.42,3.89,4.5,4.73,5.59c3.14,4.08,3.06,4.79,5.46,7.31c1.64,1.73,1.9,1.63,4.4,4.2
	c2,2.05,1.99,2.28,3.98,4.3c2.52,2.56,3.82,3.86,5.49,4.56c1.47,0.61,1.95,0.43,3.79,1.32c1.29,0.62,1.36,0.86,3.14,1.8
	c0.63,1.68,1.13,3.13,1.55,4.31c7.15,20.11,24.39,53.51,30.29,62.46c0.96,1.46,3.98,5.85,3.66,11.39c-0.09,1.51-0.39,2.61-0.55,3.18
	c-3.32,11.65-4.98,17.47-6.25,20.63c-6.35,15.76-4.03,14.13-11.11,32.8c-4.17,10.99-4.11,18.5-3.84,26.2
	c0.24,6.86,2.06,10.85,3.82,15.1c-1,0.01-1.89,0-2.59-0.01c-4.48-0.11-17.87,0.56-22.94-3.39c-2.68-2.09-3.98-3.58-4.61-4.51
	c-0.43-0.64-0.52-1.42-0.28-2.13l3.42-10.21c0.03-0.08,0.05-0.15,0.06-0.23c0.54-2.37,5.71-19.53,6.35-21.06
	c0.65-1.55,5.98-6.7,6.89-8.25c0.91-1.55,1.82-5.86,2.21-8.37c0.39-2.51,0.91-11.72,0.65-13.63c-0.13-0.96-0.62-1.61-1.07-2.03
	c-0.55-0.51-0.88-1.18-0.88-1.89v-0.02v-19.13c-0.21-3.84-1.21-10.42-5.85-16.74c-7.47-10.18-20.77-15.04-29-16.98
	c-5.41-1.28-9.46-1.74-21.73,1.18c-4.33,1.03-13.49,3.33-21.58,11c-8.01,7.6-10.4,16.05-11.16,19.52c-0.01,0.06-0.02,0.12-0.03,0.18
	c-0.07,0.49-0.41,2.89-0.7,4.33c-0.33,1.61-0.04,8.65,0.06,9.41c0.11,0.76,0.17,5.22,0,7.93c-0.17,2.71-1.04,3.35-2.08,4.15
	c-1.04,0.8-0.17,5.74,0,8.45c0.17,2.71,2.95,15.15,4.33,17.06c1.39,1.91,3.81,3.51,5.2,4.15c1.39,0.64,0.87,7.02,2.08,11.16
	c1.21,4.15,4.16,17.54,4.85,20.57c0.69,3.03-12.05,9.12-13.48,9.66c-1.67,0.62-3.28,1.13-4.86,1.58c0.44-2.51,0.66-5.32,0.35-8.87
	c-0.67-7.68-1.53-15.15-7.01-25.64c-9.32-17.82-6.81-16.44-15.05-31.45c-1.65-3.01-4.01-8.62-8.73-19.86
	c-0.23-0.55-0.67-1.61-0.94-3.1c-0.99-5.47,1.47-10.14,2.25-11.69c4.77-9.51,17.82-44.48,22.47-65.2c0.68-3.05,1.66-7.88,3.83-13.88
	c2.26-2.16,3.5-6.03,6.93-10.03c1.14-1.33,2.09-2.64,2.83-4.49c1.31-3.26,6.66-7.05,6.47-8.77c-0.05-0.49-0.04-0.22-1-5.04
	c0.37-0.95,0.65-1.97,0.84-3.14c0.27-1.69,0.2-3.42,0.03-6.65c0.08-0.18,0.15-0.34,0.23-0.53c0.31-0.68,1.48-3.24,3.81-7.18
	c2.21-3.74,3.31-5.61,3.45-5.81c0,0,1.15-1.63,1.97-3.96c0.11-0.32,0.3-0.88,0.29-1.59c-0.01-0.43-0.02-1.49-0.82-2.13
	c-0.13-0.11-0.71-0.56-1.54-0.46c-0.53,0.07-0.93,0.34-1.19,0.52c-1.1,0.81-1.88,1.88-2.77,3.17c-0.86,1.25-1.86,2.75-2.55,3.72
	c-0.36,0.51-0.68,0.93-0.68,0.93c-0.3,0.41-0.43,0.56-0.72,0.94c-0.33,0.44-0.56,0.76-0.82,1.12c-0.22,0.3-0.42,0.58-0.61,0.86
	c-0.17-0.18-0.35-0.34-0.55-0.47c-0.76-0.51-1.63-0.65-2.46-0.61c0.27-0.69,0.62-1.59,1.08-2.76c1.8-4.61,1.4-4.54,2.68-7.62
	c0.84-2.02,1.29-2.71,3.13-6.9c0,0,0.31-0.71,1.25-4c0.2-0.7,0.37-1.33,0.22-2.08c-0.18-0.92-0.75-1.49-1.04-1.77
	c-0.46-0.45-0.83-0.82-1.42-0.83c-0.67-0.01-1.22,0.45-1.66,0.82c-0.72,0.6-1.18,1.37-1.64,2.16c-0.09,0.16-0.16,0.28-0.25,0.45
	c-0.52,0.93-0.84,1.65-0.95,1.9c-0.2,0.43-0.59,1.21-1.39,2.76c-0.78,1.52-1.22,2.39-1.67,3.17c-0.09,0.15-0.4,0.69-0.8,1.44
	c-0.05,0.1-0.17,0.32-0.29,0.54c-0.69,1.32-0.93,1.99-0.99,1.98c-0.12-0.03,0.92-3.49,1.24-4.54c0.78-2.58,1.18-3.88,1.5-4.84
	c1.27-3.77,1.91-5.65,2.71-7.19c0.7-1.35,1.4-2.43,1.58-4.09c0.17-1.6-0.28-2.42-0.41-2.65c-0.13-0.23-0.74-1.24-1.98-1.45
	c-0.75-0.12-1.84,0.03-2.68,0.66c-0.38,0.28-0.6,0.58-0.88,0.54c-0.35-0.05-0.37-0.57-0.64-1.11c-0.59-1.19-1.95-1.49-2.03-1.5
	c-1.47-0.3-2.77,0.65-2.9,0.75c-0.51,0.38-0.79,0.81-1.34,1.64c-0.73,1.1-1.13,2-1.41,2.6c-0.57,1.23-1.21,2.43-1.81,3.65
	c-1.35,2.77-1.75,3.14-3.45,6.34c-1.24,2.35-1.86,3.53-2.55,5.16c-0.86,2.03-1.5,4.33-2.75,8.85c-1.25,4.5-1.19,4.77-1.84,6.11
	c-0.86,1.79-1.55,2.56-2.13,4.54c-0.55,1.89-0.57,3.4-0.56,3.99c0.02,1.63,0.36,2.18,0.98,4.71c0.55,2.26,0.29,1.87,1.07,5.63
	c0.59,2.87,0.85,3.62,1.01,4.58c0.03,0.19,0.08,0.57,0.12,1c0,0,0.26,2.62-0.23,5.34c-0.7,3.85-4.17,5.61-5.59,10.23
	c-0.13,0.41-0.23,0.83-0.31,1.26c-2.58,3.62-5.13,7.11-7.43,10.43c-3.11,4.5-14.49,21.35-23.29,43.35
	c-0.88,2.19-3.53,8.97-6.36,18.85c-1.11-0.74-2.2-1.44-3.18-2.09c-3.55-2.33-2.02-1.57-9.61-6.82c-5.64-3.9-5.57-3.7-8.4-5.7
	c-10.38-7.35-10.4-9.55-17.03-12.91c-3.66-1.86-3.46-1.09-9.91-4.05c-2.7-1.25-1.25-0.69-11.11-5.85c-4.59-2.4-5.98-3.08-7.29-4.82
	c-0.5-0.66-1.39-2-3.02-3.79c-0.5-0.55-1.27-1.39-2.36-2.36c-2.17-1.95-4.01-2.97-6.43-4.31c0,0-2.68-1.49-4.11-1.57l-1.01,0.81
	c-0.17-0.21-0.37-0.46-0.63-0.76c0,0-0.01-0.01-0.02-0.03l1.66-0.02c-0.23-0.01-1.23-0.02-1.69-0.01c-0.04-0.05-0.11-0.13-0.24-0.27
	c-0.94-1.07-2.8-1.64-4.02-2.11c-2.3-0.89-2.86-1.62-4.66-2.21c-1.14-0.37-1.71-0.56-2.16-0.55c-0.24,0-0.52,0.03-0.83-0.13
	c-0.32-0.17-0.57-0.48-0.8-1.09c-0.23-0.62-0.26-1.21-0.34-2.36c-0.09-1.43-0.11-1.71-0.19-2.21c-0.16-0.87-0.25-1.32-0.63-1.72
	c-0.11-0.12-0.71-0.73-1.59-0.66c-0.9,0.06-1.42,0.79-1.51,0.93c-0.14,0.19-0.25,0.6-0.48,1.43c-0.23,0.81-0.34,1.23-0.41,1.69
	c-0.06,0.4-0.15,0.79-0.19,1.19c-0.05,0.45-0.04,0.65-0.16,0.71c-0.2,0.1-0.56-0.31-0.9-0.63c-0.83-0.76-1.38-0.76-2.11-1.22
	c-0.72-0.44-1.19-1.25-2.11-2.84c-0.75-1.31-1.26-2.21-1.72-3.46c-0.8-2.2-0.9-4.06-0.97-5.62c-0.05-1.3-0.06-3.67-0.28-5.85
	c-0.01-0.11-0.09-0.84-0.44-1.74c-0.29-0.75-0.54-1.38-1.18-1.72c-0.69-0.38-1.43-0.18-1.56-0.15c-1.08,0.29-1.61,1.29-1.85,1.75
	c-0.37,0.7-0.46,1.6-0.61,3.38c-0.09,1.07-0.15,1.83-0.14,2.91c0.01,0.29,0.03,1.52,0.24,3.08c0.12,0.91,0.16,1.84,0.29,2.76
	c0.06,0.46,0.11,0.8,0.01,0.84c-0.2,0.09-0.73-0.86-1.41-1.87c-0.97-1.48-1.2-1.55-2.27-3.04c-1.13-1.57-1.96-2.75-2.73-4.42
	c-0.67-1.48-1.59-3.49-1.58-5.87c0-0.94-0.09-1.88-0.07-2.82c0.02-0.86,0.08-1.48-0.27-2.21c-0.12-0.24-0.37-0.74-0.93-1.1
	c-0.07-0.05-0.83-0.52-1.76-0.35c-0.95,0.17-1.51,0.92-1.95,1.54c-1.23,1.71-1.32,3.59-1.35,4.34c-0.03,0.87,0.14,1.85,0.5,3.81
	c0.31,1.77,0.37,1.44,0.67,3.16c0.16,0.9,0.22,1.42,0.57,2.12c0.26,0.5,0.53,0.84,0.45,0.93c-0.13,0.14-1.05-0.54-1.38-0.78
	c-1.08-0.82-2.2-1.67-3.57-3.37c-1.53-1.91-2.52-3.13-3.04-4.97c-0.12-0.41-0.39-1.47-1.21-2.51c-0.39-0.49-0.78-0.98-1.43-1.11
	c-1.16-0.21-2.12,0.93-2.17,1c-0.35,0.44-0.6,1.04-0.63,2.1c-0.04,1.17,0.21,2.27,1.2,4.56c0.68,1.59,1.28,2.69,2.46,4.9
	c0.68,1.28,1.05,1.96,1.61,2.82c0.21,0.34,0.45,0.68,0.78,1.25c0.41,0.68,0.4,0.74,0.92,1.66c0.23,0.4,0.7,1.21,1.18,1.75
	c0.23,0.25,0.43,0.44,0.43,0.44c0.17,0.16,0.41,0.35,0.5,0.42c0.17,0.13,7.26,5.82,9.02,9.46c0.06,0.12,0.11,0.25,0.16,0.36
	c0.36,0.91,0.23,1.44,0.09,1.75c-0.18,0.36-0.47,0.59-0.78,0.77c-1.38,0.82-2.97,0.78-3.07,0.78c-3.97-0.1-2.1,0.29-6.61,0.04
	c-3.38-0.18-5.07-0.28-5.9-0.55c-0.21-0.07-0.42-0.14-0.65-0.22c0.24-0.35,0.49-0.7,0.74-1.08c1.51-2.26,2.06-3.51,2.41-4.77
	c0.53-1.93,0.42-3.24,0.32-3.93c-0.16-1.1-0.38-2.53-1.56-3.29c-0.94-0.61-2.01-0.46-2.3-0.41c-0.65,0.12-1.33,0.45-2.96,2.22
	c-1.22,1.34-1.29,1.66-2.83,3.52c-0.53,0.64-1.45,1.74-2.66,3.02c-1.31,1.4-1.07,1.01-2.08,2.09c-1.06,1.16-1.48,1.75-1.79,1.64
	c-0.35-0.13-0.31-1.01-0.3-1.84c0.05-3.21-0.35-1.9-0.27-5.51c0.06-2.44,0.25-3.43,0.4-5.43c0.27-3.56,0.1-6.28-0.03-8.35
	c-0.31-5.11-0.81-3.97-1.29-9.6c-0.08-0.93-0.23-3-1.35-4.97c-0.66-1.15-1.31-1.71-1.97-2.24c-0.99-0.81-1.42-0.8-1.55-0.79
	c-1.02,0.09-1.59,1.55-1.7,1.8c-0.45,1.12-0.34,2.27-0.2,3.76c0.1,1.03,0.25,1.57,0.09,1.63c-0.3,0.12-1.29-1.61-1.59-2.13
	c-0.9-1.56-0.9-2.01-1.55-2.45c-0.81-0.55-1.72-0.48-2-0.45c-0.23,0.02-1.62,0.13-2.33,1.18c-0.56,0.82-0.4,1.74-0.2,2.92
	c0.21,1.23,0.6,2.1,1.22,3.47c0.96,2.08,1.26,2.16,1.39,3.16c0.11,0.82-0.08,0.93,0.01,2.5c0.08,1.28,0.24,1.89,0.05,1.96
	c-0.06,0.02-0.24,0.03-1.55-1.84c-0.87-1.23-1.03-1.56-1.55-1.83c-0.16-0.08-0.93-0.46-1.75-0.16c-1.14,0.41-1.45,1.78-1.5,2.01
	c-0.21,0.95,0.09,1.66,0.46,2.79c0.52,1.5,0.84,3.06,1.27,4.59c0.92,3.25,0.58,2.72,1.19,4.63c0.13,0.41,0.63,1.95,0.98,4.01
	c0.16,0.99,0.19,1.49,0.04,1.54c-0.2,0.07-0.71-0.77-1-1.38c-0.44-0.92-0.31-1.17-0.68-1.54c-0.6-0.6-1.58-0.52-1.92-0.49
	c-0.3,0.03-1.36,0.12-1.91,0.9c-0.36,0.52-0.36,1.12-0.24,2.01c0.24,1.71,0.71,2.8,1.21,4.2c0.72,1.98,1.07,2.97,1.18,4.15
	c0.07,0.68,0.18,2.07-0.35,3.59c-0.56,1.6-1.56,2.59-2.02,3.04c-3.74,3.77-3.66,6.13-8.17,11.44c-0.76,0.9-2.31,2.64-3.04,4.18
	c-0.09,0.18-0.37,0.81-0.88,1.57c-0.53,0.78-1.01,1.29-1.11,1.4c-0.51,0.55-2.17,2.81-3.34,5.29l-2.22-0.59
	c-1.84,2.13-1.4,2.22-5.67,8.67c-1.7,2.58-2.56,3.89-3.43,4.91c-1.71,2.03-2.93,2.93-6.15,5.59c-5.41,4.46-8.12,6.68-9.91,8.69
	c-2.28,2.54-2.43,3.3-4.8,5.52c-0.41,0.39-1.86,1.72-5.77,4.51c-4.03,2.87-4.81,3.1-6.67,4.49c-3.03,2.26-4.81,4.52-7.55,8.18
	c-1.63,2.17-3.04,4.1-4.32,5.87c0.18-1.97,0.34-3.81,0.49-5.48c0.78-9.05,1.88-18.07,2.74-27.12c0.34-3.59,1.38-7.11,1.93-10.68
	c0.22-1.39,0.48-3.18,1.68-5.29c1.02-1.77,1.54-1.75,3.23-4.11c1.71-2.39,2.81-3.93,3.36-6.16c0.38-1.54,0.29-2.62,1.37-4.06
	c0.14-0.18,0.75-0.98,1.99-1.85c2.07-1.44,3.44-1.36,5.97-2.36c2.27-0.9,4.94-1.96,5.6-4.01c0.51-1.59-0.33-3.36-1.62-4.42
	c-1.73-1.43-4.12-1.43-6.22-1.44c-2.25,0-2.48,0.41-6.47,0.82c-2.54,0.26-3.81,0.39-5.23,0.21c-1.08-0.14-3.61-0.6-5.85-2.26
	c-0.82-0.61-1.89-1.43-2.36-2.77c-0.29-0.84-0.23-1.54-0.12-2.46c0.18-1.63,0.63-2.56,1-3.7c0.6-1.85,0.67-3.29,0.75-4.93
	c0.14-2.82,0.21-4.29-0.87-5.85c-0.42-0.6-1.54-2.23-3.73-2.57c-2.21-0.34-4,0.87-4.35,1.13c-0.91,0.66-1.35,1.42-1.99,2.57
	c-0.48,0.85-0.75,1.58-1,2.26c-0.34,0.94-0.42,1.37-0.87,2.57c-0.65,1.74-0.87,1.85-1,1.85c-0.26,0-0.42-0.44-0.87-1.54
	c-0.86-2.09-0.88-1.99-1-2.36c-0.49-1.53-0.05-2.68,0.37-4.93c0.48-2.59,0.06-1.95,0.62-5.75c0.4-2.75,0.7-3.61,0.75-5.75
	c0.06-2.58-0.33-3.36-0.75-3.9c-1.13-1.48-3.07-1.99-3.73-2.16c-0.85-0.22-2.47-0.64-4.23-0.05c-1.83,0.61-2.65,1.93-2.99,2.47
	c-0.29,0.46-0.38,0.76-0.93,3.24c-0.75,3.35-0.71,3.38-0.93,3.93c-0.67,1.64-1.08,1.57-1.68,3.31c-0.34,0.97-0.43,1.64-0.84,1.69
	c-0.34,0.05-0.63-0.36-1.59-1.54c-1.71-2.11-1.7-1.95-2.05-2.54c-0.6-1-0.85-1.81-1.12-2.7c-0.16-0.54-0.42-1.48-0.65-3.39
	c-0.18-1.46-0.17-2.13-0.28-3.85c-0.16-2.68-0.25-4.02-0.47-5.08c-0.5-2.42-0.77-3.72-2.05-4.93c-1.35-1.27-4.02-2.63-6.63-1.93
	c-2,0.54-2.94,2.01-3.08,2.23c-0.73,1.17-0.5,2.14-0.37,4.08c0.03,0.39-0.01,2.21-0.09,5.85c-0.1,4.59-0.36,3.93-0.28,6.39
	c0.09,2.84-0.12,3.2-0.19,4.93c-0.02,0.5-0.06,1.52-0.28,1.54c-0.15,0.01-0.29-0.42-0.56-1c-0.31-0.66-0.44-0.79-1.21-2.08
	c-1.51-2.51-2.4-4.36-3.73-6.39c-1.91-2.92-3.1-4.72-5.6-6.32c-2.71-1.73-5.31-2.15-5.88-2.23c-2.83-0.42-7.32-0.26-8.21,1.54
	c-0.41,0.83,0.05,1.79,0.37,2.47c0.6,1.25,1.5,1.82,2.61,2.77c0.3,0.26,2.77,2.39,4.11,4.78c0.97,1.73,0.63,2.31,1.31,4.47
	c0.93,2.95,2.37,4.45,3.73,6.47c3.1,4.61,1.92,6.23,4.29,11.4c1.88,4.08,2.77,3.42,8.4,11.09c3.56,4.87,6.27,8.6,8.4,14.02
	c2.3,5.85,2.31,9.51,2.24,11.09c-0.14,3.14-0.9,5.48-1.31,6.68c-3.41,10.16-5.12,15.25-8.46,21.77c-5.01,9.78-4.05,13.72-8.46,30.4
	c-10.49,39.7-29.12,67.43-28.24,79.04c0.14,1.82,1.04,6.96-2.43,10.94c-1.06,1.21-2.26,2.02-3.55,4.16
	c-0.81,1.34-1.28,2.89-2.24,6.01c-1.18,3.83-1.76,5.75-1.87,6.16c-0.43,1.75-0.48,2.3-1.12,2.93c-0.19,0.19-0.39,0.34-0.61,0.47
	c0.19-3.27,0.29-5.54,0.32-7.09c0.12-6.79-0.3-4.52-1.1-23.92c-0.8-19.27-0.06-13.5-0.15-33.91c-0.01-2.28-0.03-4.05,0.44-6.48
	c0.67-3.43,1.44-3.67,1.33-5.91c-0.1-1.97-0.22-4.5-1.7-6.41c-0.27-0.35-0.79-0.94-0.67-1.63c0.13-0.76,0.92-1.09,1.65-1.65
	c0.96-0.74,1.41-1.66,2.31-3.5c0.5-1.03,0.93-2.21,1.61-6.14c0.51-2.91,0.91-5.27,1.09-8.59c0.19-3.53-0.05-4.94-0.25-5.83
	c-0.28-1.24-0.8-3.42-2.35-4.63c-0.91-0.72-2.35-1.23-3.06-1.29c0,0,0,0,0,0c-0.15-0.01-1.34-0.12-1.87-0.43
	c-0.56-0.33-0.41-0.9-0.82-1.72c-0.34-0.69-1.01-1.13-2.36-2.01c-1.87-1.23-2.8-1.84-3.83-1.89c-0.77-0.03-1.46,0.15-1.99-0.33
	c-0.3-0.28-0.36-0.6-0.51-1.02c-0.22-0.64-0.61-1.21-1.4-2.34c-0.78-1.13-1.73-2.5-3.44-3.31c-0.45-0.22-2.57-1.16-4.82-0.52
	c-1.11,0.32-1.56,0.82-2.57,0.7c-0.96-0.11-1.5-0.67-2.25-1.22c0,0-1.75-1.28-4.51-1.87c-3.06-0.66-5.93,1.18-7.15,1.97
	c-1.9,1.22-3.32,3.15-6.18,7c-1.71,2.3-2.56,3.45-2.76,3.94c-0.21,0.51-0.49,1.35-0.87,1.34c-0.33-0.01-0.53-0.62-0.85-1.35
	c-0.44-1-1.1-1.88-1.61-2.84c-0.91-1.71-2.09-3.29-4.09-5.99c-1.9-2.56-2.88-3.86-4.14-5.06c-2.47-2.35-3.99-2.82-4.52-2.96
	c-0.79-0.21-2.33-0.61-4.09,0.04c-2.01,0.74-2.97,2.35-3.26,2.85c-1.03,1.78-0.91,3.5-0.86,4.08c0.16,1.88,1.01,3.22,1.44,3.88
	c3.22,4.91,6.23,8.89,6.23,8.89c4.51,5.96,5.62,8.43,5.97,9.24c1.08,2.49,0.64,2.41,1.73,4.88c0.71,1.63,1.64,3.35,5.98,9.16
	c3.13,4.2,4.7,6.29,5.4,6.82c3.99,2.99,6.13,4.59,7.68,5.33c0.28,0.13,1.2,0.55,1.58,1.46c0.17,0.41,0.17,0.76,0.18,1.14
	c0.04,1.23,0.21,1.39,0.4,2.96c0.27,2.23,0.3,5.12,0.3,5.62c0.06,8.03-0.23,12.71-0.23,12.71c-0.15,2.44-0.82,12.23-3.45,24.55
	c-1.26,5.9-1.89,8.85-3.14,12.11c-0.67,1.74-1.56,3.78-2.46,6.98c-0.14,0.5-0.88,3.18-1.39,6.49c-1.85,11.95-1.5,33.49-1.5,33.49
	c0.11,6.91,0.27,9.29-0.59,12.9c-1.02-5.61-2.98-16.57-8.54-45.65c-6.03-31.56-5.41-27.5-6.83-35.59
	c-1.5-8.52-2.03-12.05-3.52-18.31c-2.18-9.09-3.81-13.1-8.58-27.45c-5.77-17.4-8.66-26.1-9.88-32.37
	c-2.53-13.03-3.8-19.55-3.19-27.11c0.49-6.19,1.81-11.2-0.68-17.61c-1.43-3.68-4.35-8.45-5.6-10.49c-0.86-1.41-0.94-1.47-4.71-7.04
	c-5.45-8.06-6.46-9.69-8.96-11.71c-2.13-1.72-4.69-3.78-7.22-3.05c-2.06,0.6-3.56,2.88-3.99,4.93c-0.57,2.74,0.98,4.14-0.05,5.64
	c-0.95,1.38-2.47,0.52-4.39,2.24c-1.21,1.09-1.76,2.48-2.17,3.51c-0.9,2.26-0.32,2.77-1.13,3.92c-1.23,1.74-2.78,0.98-3.91,2.6
	c-0.76,1.1-0.04,1.43-0.78,4.9c-0.45,2.1-1.07,3.67-1.26,4.14c-0.64,1.57-0.81,1.5-1.03,2.25c-0.78,2.72,0.93,5.52,1.23,6.04
	c1.28,2.17,2.54,2.07,5.68,4.69c4.4,3.67,3.53,5.2,7.4,8.02c0.68,0.5,2.1,1.46,3.25,3.29c0.72,1.16,1.04,2.17,1.2,2.72
	c1.95,6.5,2.34,9.21,2.34,9.21c0.86,6.03,1.7,6.99,3.23,15.73c1.94,11.09,2.63,21.17,3.36,29.41c0.33,3.75,0.63,7.15,0.93,10.3
	c-6.7-8.14-16.35-10.63-23.15-12.37c-3.54-0.91-9.3-2.31-16.44-1.89c0.09-2.43,0.14-4.9,0.13-7.45
	c-0.06-17.99-2.47-31.38-3.07-34.59c-3.95-21.14-11.11-38.14-13.08-42.69c-1.46-3.36-3.11-6.92-4.77-10.59
	c0-0.4-0.02-0.79-0.06-1.18c-0.44-4.36-3.23-6.54-3.17-10.09c0.04-2.51,0.73-4.8,0.73-4.8c0.11-0.37,0.22-0.7,0.28-0.86
	c0.31-0.83,0.67-1.45,1.71-3.9c1.36-3.21,1.06-2.91,1.95-4.82c0.99-2.15,1.39-2.58,1.7-4.02c0.11-0.52,0.36-1.87,0.2-3.65
	c-0.17-1.86-0.65-2.68-1.09-4.42c-0.34-1.31-0.24-1.54-0.56-5.76c-0.32-4.24-0.48-6.4-0.89-8.36c-0.32-1.57-0.67-2.74-1.36-5.04
	c-0.94-3.15-1.24-3.56-1.95-6.25c-0.31-1.19-0.68-2.37-0.97-3.57c-0.14-0.58-0.34-1.45-0.8-2.56c-0.34-0.84-0.52-1.27-0.9-1.7
	c-0.1-0.11-1.09-1.19-2.45-1.18c-0.07,0-1.33,0.03-2.07,0.98c-0.33,0.43-0.44,0.89-0.76,0.87c-0.26-0.01-0.4-0.32-0.69-0.64
	c-0.64-0.71-1.58-1.03-2.27-1.06c-1.15-0.04-1.86,0.76-2.02,0.94c-0.16,0.17-0.7,0.83-0.83,2.28c-0.13,1.51,0.3,2.59,0.68,3.92
	c0.44,1.51,0.67,3.3,1.14,6.88c0.12,0.92,0.24,2.14,0.48,4.58c0.1,0.99,0.42,4.25,0.3,4.26c-0.05,0-0.14-0.64-0.53-1.94
	c-0.06-0.22-0.13-0.43-0.16-0.53c-0.23-0.74-0.41-1.27-0.46-1.42c-0.26-0.78-0.5-1.63-0.93-3.12c-0.43-1.52-0.65-2.28-0.75-2.7
	c-0.06-0.24-0.22-0.94-0.51-1.86c-0.05-0.17-0.09-0.29-0.15-0.44c-0.28-0.79-0.55-1.55-1.08-2.21c-0.33-0.41-0.74-0.91-1.34-1.02
	c-0.53-0.1-0.92,0.16-1.41,0.49c-0.3,0.2-0.91,0.6-1.24,1.39c-0.26,0.64-0.22,1.23-0.17,1.89c0.25,3.09,0.4,3.78,0.4,3.78
	c0.9,4.05,1.17,4.74,1.57,6.69c0.6,2.96,0.26,2.84,1.04,7.25c0.2,1.11,0.35,1.98,0.47,2.64c-0.73-0.18-1.53-0.21-2.3,0.11
	c-0.2,0.09-0.39,0.2-0.57,0.33c-0.13-0.28-0.26-0.57-0.4-0.88c-0.16-0.36-0.31-0.69-0.53-1.14c-0.19-0.39-0.27-0.55-0.47-0.96
	c0,0-0.21-0.43-0.44-0.95c-0.44-0.98-1.07-2.5-1.62-3.76c-0.57-1.31-1.06-2.39-1.9-3.31c-0.2-0.21-0.51-0.52-0.97-0.68
	c-0.72-0.24-1.31,0.06-1.45,0.14c-0.82,0.44-1.02,1.37-1.1,1.75c-0.13,0.63-0.07,1.16-0.02,1.47c0.32,2.22,1.05,3.87,1.05,3.87
	c0.09,0.2,0.74,2.06,2.05,5.78c1.38,3.92,1.97,6.4,2.12,7.06c0.04,0.19,0.07,0.34,0.11,0.52c-0.72,2.84-1.09,4.38-1.14,5.93
	c-0.04,1.08,0.04,2.04,0.2,2.95c-1.7,4.12-1.64,3.88-1.77,4.31c-0.47,1.49,3.62,5.82,4.21,8.94c0.34,1.78,0.95,3.11,1.73,4.49
	c2.34,4.16,2.77,7.82,4.39,10.14c0.88,5.72,0.9,10.2,0.98,13.04c0.48,19.26,5.93,52.68,8.5,61.99c0.42,1.52,1.79,6.11-0.06,10.8
	c-0.5,1.28-1.08,2.15-1.38,2.59c-3.23,4.78-5.61,8.31-7.43,10.94c-5.24-11.2-4.85-9.95-8.71-18.02c-2.09-4.37-3.46-7.37-5.98-11.91
	c-0.13-0.23-0.28-0.49-0.57-1.02c-4.3-7.65-4.84-8.23-6.74-11.8c-2.54-4.79-1.94-4.44-3.58-7.3c-0.93-1.61-1.43-3.44-2.23-5.11
	c-0.1-0.21-0.36-0.75-0.35-1.47c0.01-0.98,0.53-1.7,0.73-2c0.53-0.8,0.87-2.08,1.54-4.63c0.43-1.63,0.51-3.22,0.67-6.4
	c0.13-2.66,0.01-2.83,0.19-4.95c0.07-0.8,0.23-2.01,0.56-4.4c0.39-2.85,0.59-4.29,0.78-4.91c0.37-1.25,0.93-2.36,2.04-4.58
	c0.52-1.04,1.22-2.35,1.86-4.28c0.4-1.22,0.56-2,0.22-2.76c-0.35-0.78-1.06-1.2-1.51-1.47c-0.4-0.24-1.19-0.7-2.16-0.64
	c-0.47,0.03-0.93,0.19-2.21,1.11c-1.23,0.89-2.05,1.49-3.01,2.58c-1.15,1.3-1.78,2.5-2.14,3.18c-0.29,0.56-0.96,1.9-1.59,3.43
	c0,0-0.29,0.71-0.84,1.68c-0.06,0.1-0.41,0.71-1.03,1.36c-0.48,0.5-0.59,0.48-0.63,0.46c-0.18-0.08-0.09-0.62,0.02-1.45
	c0.08-0.64,0.25-2.06,0.21-3.46c-0.01-0.5-0.06-0.99-0.31-1.51c-0.04-0.08-0.22-0.45-0.6-0.83c-0.35-0.36-0.72-0.73-1.26-0.78
	c-0.6-0.06-1.07,0.31-1.25,0.46c-0.55,0.43-0.74,0.97-0.97,1.56c-0.2,0.5-0.58,1.29-1.33,2.88c-0.67,1.4-1.09,2.07-1.4,2.51
	c-0.03,0.04-0.44,0.63-1.11,1.28c-0.47,0.46-0.65,0.55-0.75,0.59c-0.56,0.25-1.13,0.1-1.66-0.05c-1.68-0.47-2.52-0.7-2.93-0.91
	c-1.6-0.82-2.54-1.92-3.4-2.96c-1.15-1.37-1.83-2.63-2.75-4.33c-0.89-1.63-1.07-2.21-1.94-3.39c-0.28-0.38-1.09-1.43-2.44-2.28
	c-0.98-0.62-1.5-0.66-1.87-0.62c-0.72,0.08-1.21,0.52-1.4,0.72c-0.06,0.06-0.6,0.64-0.68,1.5c-0.03,0.37,0.02,0.75,0.08,1.16
	c0.09,0.61,0.21,0.89,0.11,0.95c-0.12,0.07-0.41-0.29-0.92-0.72c-0.5-0.42-0.77-0.55-1.31-0.9c-0.79-0.52-1.28-0.97-2.15-1.72
	c-1.78-1.52-1.51-1.2-3.66-3.02c-2.33-1.98-2.75-2.46-3.94-2.96c-1.68-0.7-2.58-0.47-2.97-0.33c-0.24,0.08-1.01,0.37-1.49,1.18
	c-0.05,0.09-0.54,0.93-0.32,1.97c0.15,0.72,0.56,1.15,0.99,1.63c2.09,2.37-4.57-4.55,2.27,2.83c2.48,2.67,3.71,4,4.26,4.56
	c1.96,1.97,2.06,1.96,4.28,4.18c1.94,1.94,2.92,2.93,3.54,3.78c1.13,1.53,2.21,3.42,2.8,4.45c0.26,0.45,0.49,0.86,0.9,1.61
	c1.04,1.87,1.54,2.84,1.86,3.43c0.25,0.46,0.82,1.46,3.06,4.52c2.26,3.09,2.87,3.69,4.39,5.75c1.82,2.46,3.01,4.39,4.04,6.07
	c0.53,0.85,3.51,5.73,5.98,11.24c3.1,6.94,4.37,12.59,6.4,21.92c1.4,6.45,2.18,11.17,3.23,17.54c2.35,14.36,1.95,15.3,3.81,24.72
	c1.19,6,2.02,10.21,3,13.62c-5.53,7.44-7.45,13.43-9.25,19.62c-3.23,11.15,1.09,15.13-1.89,26.71c-1.58,6.12-4.08,8.19-9.41,14.24
	c-3.28-1.9-6.53-4.23-6.18-5.73c0.64-2.8,3.36-15.16,4.48-18.99c1.12-3.83,0.64-9.71,1.92-10.3c1.28-0.59,3.52-2.06,4.8-3.83
	c1.28-1.77,3.84-13.25,4-15.75c0.16-2.5,0.96-7.06,0-7.8c-0.96-0.74-1.76-1.32-1.92-3.83c-0.16-2.5-0.1-6.62,0-7.32
	c0.1-0.7,0.36-7.19,0.06-8.68c-0.27-1.33-0.58-3.55-0.65-4c-0.01-0.06-0.02-0.11-0.03-0.17c-0.7-3.21-2.9-11.01-10.3-18.02
	c-7.47-7.08-15.93-9.2-19.92-10.15c-11.32-2.7-15.07-2.27-20.06-1.09c-7.6,1.79-19.88,6.28-26.77,15.67
	c-4.28,5.84-5.2,11.91-5.4,15.45v17.66v0.02c0,0.66-0.3,1.28-0.81,1.75c-0.42,0.39-0.87,0.99-0.99,1.88
	c-0.05,0.38-0.07,1.08-0.06,1.96c-8.71-13.8-6.77-13.24-15.06-25.65c-1.72-2.57-4.27-7.43-9.39-17.16
	c-0.25-0.47-0.72-1.39-1.08-2.72c-1.31-4.86,0.55-9.31,1.14-10.79c3.58-9.05,12.68-41.91,15.29-61.1c0.17-1.24,0.37-2.81,0.66-4.63
	c0.96-0.82,1.08-1.07,1.99-1.76c1.48-1.12,1.94-1.04,3.14-1.85c1.37-0.92,2.29-2.3,4.08-5.03c1.41-2.15,1.36-2.35,2.78-4.53
	c1.77-2.73,2.02-2.69,3.17-4.51c1.69-2.67,1.49-3.29,3.56-7.47c0.56-1.12,1.65-3.26,3.22-5.81c2.07-3.36,3.1-5.05,5.04-6.97
	c1.74-1.73,2.19-1.65,4.09-3.66c1.51-1.6,2.66-2.85,3.46-4.75c0.6-1.44,1.72-4.12,0.27-6.13c-0.77-1.06-2.18-1.84-3.68-1.84
	c-1.65,0-2.84,0.94-3.72,1.63c-0.8,0.64-0.87,0.91-2.58,3.05c-1.52,1.9-1.18,1.32-3.15,3.71c-1.76,2.13-1.97,2.52-2.71,2.77
	c-1.42,0.49-2.84-0.16-3.79-0.58c-0.76-0.34-1.38-0.77-1.89-1.22c-0.72-5.25-1.14-7.94-2.98-8.94c-0.02-0.01-0.05-0.02-0.07-0.03
	c0.18-0.08,0.4-0.17,0.72-0.3c2.04-0.83,3.07-1.25,3.7-1.9c0.23-0.24,0.86-0.89,0.91-1.82c0.07-1.25-0.97-2.11-1.09-2.2
	c-0.87-0.69-2.09-0.81-4.52-0.86c-1.34-0.03-2.01,0.15-2.63-0.28c-0.99-0.7-0.79-2.22-0.74-3.67c0.03-1.07-0.3-3.1-0.97-7.16
	c-0.59-3.57-1.39-5.82-2.14-7.88c-1.43-3.93-2.31-4.72-3.28-4.95c-0.99-0.23-2.27,0.09-2.9,0.86c-0.87,1.06-0.04,2.38,0.14,4.48
	c0.15,1.75-0.38,3.24-1.42,6.23c-1.62,4.61-2.66,5.19-3.71,8.11c-1.32,3.68-1.08,6.68-0.75,10.72c0.09,1.12,0.78,4.71,2.15,11.85
	c0.71,3.66,0.87,4.46,0.85,5.93c-0.01,1.07-0.12,2.04-0.28,2.97c-0.53,1.05-1.05,2.1-1.53,3.18c-4.01,8.88-9.51,17.42-13.78,24.99
	c-2.46,4.36-11.44,20.67-17.7,41.4c-0.95,3.15-4.82,16.29-6.87,34.25c-0.88,7.73-1.25,14.86-1.23,21.84
	c-0.25,0.15-0.58,0.27-0.88,0.17c-0.3-0.1-0.44-0.36-0.64-0.75c-0.84-1.61-0.4-3.25-0.34-3.47c0,0,0,0,0,0
	c0.35-1.24,0.22-2.06-0.19-5.26c-0.04-0.36-0.05-0.4-0.07-0.52c-0.19-1.18-0.52-2.02-0.65-2.39c-0.37-0.99-0.24-0.96-0.83-2.99
	c-0.22-0.77-1.14-3.88-2.51-6.25c-0.25-0.44-0.72-1.19-1.61-1.72c-0.41-0.25-0.77-0.36-0.96-0.42c-0.4-0.12-1.71-0.53-2.88,0.1
	c-0.14,0.07-0.32,0.18-0.52,0.38c-0.59,0.59-0.65,1.4-0.67,1.76c-0.09,1.68,0.83,4.14,1.15,5.03c1.13,3.17,0.53,3.18,1.55,6.01
	c0.18,0.49,0.78,2.13,0.96,4.24c0.01,0.08,0.01,0.14,0.02,0.27c0.18,2.48,0,2.79,0.18,3.93c0.17,1.07,0.53,1.97,0.47,1.99
	c-0.04,0.01-0.24-0.47-0.29-0.45c-0.02,0.01-0.01,0.06-0.01,0.08c0.03,0.26-0.06,0.7-0.16,0.87c-0.18,0.33-0.87,0.44-1.36,0.23
	c-0.36-0.16-0.48-0.43-0.89-1.22c-0.96-1.85-0.91-1.55-1.62-3.01c-0.16-0.34-0.27-0.57-0.47-0.91c-0.36-0.62-0.67-0.99-0.94-1.35
	c-0.3-0.39-0.59-0.88-1.18-1.85c-1.36-2.25-2.41-4.43-2.58-4.8c-0.39-0.82-0.85-1.6-1.21-2.43c-0.13-0.3-0.4-0.94-0.96-1.62
	c-0.09-0.11-0.25-0.3-0.49-0.52c-0.47-0.44-1.09-1.01-2-1.1c0,0-0.88-0.09-1.76,0.35c-0.04,0.02-0.08,0.04-0.08,0.04
	s-0.14,0.08-0.26,0.17c-0.12,0.09-0.64,0.64-0.85,1.16c-0.39,0.98,0.04,2.55,0.18,3c0.31,1.08,0.84,2.22,1.86,4.45
	c0.42,0.91,0.63,1.35,0.95,2.15c0.35,0.88,0.38,1.07,0.74,1.92c0.16,0.39,0.41,0.91,0.9,1.95c0.78,1.65,0.69,1.42,0.85,1.79
	c0.1,0.23,0.35,0.84,0.77,1.63l0,0c0.63,1.2,0.9,2.39,0.97,2.72c0.2,0.93,0.3,1.39,0.09,1.56c-0.14,0.11-0.34,0.07-1.2-0.29
	c-1.56-0.65-1.99-0.97-2.71-1.19c-0.09-0.03-0.35-0.11-0.68-0.26c0,0-0.31-0.15-0.62-0.35c-2.27-1.48-4.74-4-4.74-4
	c-1.47-1.5-2.47-2.51-3.06-3.59c-0.06-0.11-0.25-0.47-0.58-0.91c-0.13-0.17-0.64-0.86-1.51-1.52c-0.51-0.39-0.85-0.55-1.15-0.65
	c0,0-0.18-0.06-0.37-0.1c-0.11-0.02-1.97-0.41-2.8,0.45c-0.77,0.8-0.3,2.33-0.14,2.83c0.31,1.01,1.09,1.95,2.66,3.82
	c0.15,0.18,0.5,0.59,0.92,1.18c0.35,0.48,0.48,0.71,0.78,1.15c0.45,0.68,0.81,1.14,1.52,2.06c0.42,0.55,0.82,1.06,1.39,1.74
	c0.51,0.61,0.74,0.83,1.26,1.47c0.2,0.24,0.47,0.59,0.88,1.13c0.31,0.41,2.39,3.19,3.31,5.21c0.11,0.24,0.19,0.45,0.21,0.48
	c0.37,0.92,0.51,1.66,0.56,1.91c0.03,0.14,0.31,1.07,0.86,2.93c0.58,1.95,1.04,3.47,1.4,4.39c0.04,0.09,0.16,0.4,0.3,0.82
	c0.18,0.54,0.29,0.94,0.33,1.09c0.44,1.63,1.14,3.01,1.14,3.01c0.37,0.73,0.56,1.1,0.89,1.56c0.39,0.54,0.6,0.71,0.65,1.1
	c0.07,0.52-0.29,0.54-0.47,1.38c-0.16,0.74-0.07,1.52,0.01,2.19c0.01,0.09,0.02,0.16,0.03,0.23c0.11,0.82,0.29,1.61,0.54,2.43
	c0.33,1.06,0.5,1.59,0.81,1.68c0.4,0.12,0.66-0.32,1.12-0.17c0.39,0.13,0.59,0.57,0.72,0.87c0.17,0.38,0.21,0.7,0.24,0.94
	c0.14,1.26,0.1,1.65,0.18,2.59c0.09,1.05,0.19,1.24,0.01,1.56c-0.17,0.3-0.49,0.53-1.03,0.92c-0.17,0.12-0.31,0.21-0.6,0.4
	c-0.71,0.46-0.8,0.47-0.91,0.58c-0.53,0.48-0.26,1.63-0.15,2.08c0.52,2.01,1.48,3.23,2.67,5.38c1.09,1.98,1.59,3.34,1.78,3.88
	c0.26,0.75,0.5,1.44,0.66,2.24c-2.76-0.53-7.29-1.16-12.63,0.52c-2.06,0.65-6.41,2.08-10.11,6.3c-0.68,0.78-1.26,1.56-1.77,2.34
	c-0.4-7.46-0.96-14.46-1.79-22.12c-3.7-34.23-6.11-56.46-16.79-84.66c-7.38-19.47-15.4-33.07-17.34-36.32
	c-12.81-21.41-27.38-37.11-31.34-41.29c-2.92-3.08-6.14-6.31-9.41-9.66c-0.16-0.43-0.34-0.85-0.54-1.26
	c-2.25-4.56-6.11-5.86-7.49-9.73c-0.98-2.73-1.17-5.48-1.17-5.48c-0.03-0.45-0.05-0.85-0.05-1.05c0-1.01,0.13-1.83,0.24-4.88
	c0.15-3.99-0.05-3.56,0.12-5.97c0.19-2.7,0.44-3.32,0.18-5.01c-0.09-0.61-0.38-2.16-1.27-4.03c-0.94-1.96-1.78-2.65-2.96-4.37
	c-0.89-1.29-0.88-1.58-2.94-6.03c-2.06-4.47-3.12-6.75-4.35-8.72c-0.99-1.58-1.83-2.71-3.51-4.95c-2.29-3.05-2.77-3.38-4.63-6.04
	c-0.82-1.17-1.69-2.31-2.48-3.5c-0.39-0.58-0.96-1.44-1.89-2.47c-0.71-0.78-1.07-1.18-1.66-1.49c-0.15-0.08-1.65-0.87-3.1-0.35
	c-0.07,0.03-1.41,0.54-1.81,1.85c-0.18,0.59-0.11,1.13-0.46,1.23c-0.28,0.08-0.56-0.19-1-0.43c-0.97-0.52-2.11-0.52-2.85-0.28
	c-1.24,0.4-1.68,1.53-1.78,1.79c-0.1,0.25-0.42,1.16,0.04,2.79c0.47,1.68,1.37,2.7,2.32,3.99c1.08,1.47,2.06,3.32,4.02,7.02
	c0.5,0.95,1.13,2.22,2.38,4.78c0.51,1.04,2.18,4.45,2.05,4.5c-0.05,0.02-0.41-0.64-1.35-1.9c-0.16-0.21-0.32-0.42-0.39-0.51
	c-0.54-0.71-0.96-1.22-1.07-1.37c-0.6-0.75-1.2-1.57-2.26-3.03c-1.08-1.48-1.62-2.23-1.9-2.64c-0.16-0.24-0.61-0.93-1.31-1.82
	c-0.13-0.16-0.21-0.27-0.34-0.42c-0.62-0.75-1.22-1.47-2.06-1.98c-0.52-0.32-1.16-0.71-1.84-0.6c-0.6,0.1-0.92,0.53-1.31,1.06
	c-0.24,0.34-0.73,1-0.75,1.98c-0.02,0.79,0.26,1.42,0.58,2.11c1.53,3.26,1.97,3.94,1.97,3.94c2.61,4.05,3.18,4.69,4.4,6.65
	c1.84,2.98,1.43,2.98,4.07,7.46c0.67,1.13,1.18,2.01,1.58,2.68c-0.86,0.09-1.72,0.35-2.41,0.99c-0.18,0.17-0.34,0.36-0.48,0.57
	c-0.25-0.26-0.5-0.51-0.78-0.8c-0.32-0.33-0.61-0.63-1.03-1.03c-0.36-0.35-0.51-0.49-0.9-0.86c0,0-0.39-0.39-0.86-0.86
	c-0.87-0.9-2.16-2.3-3.26-3.46c-1.14-1.2-2.11-2.19-3.38-2.86c-0.3-0.16-0.76-0.37-1.31-0.36c-0.86,0.01-1.38,0.57-1.49,0.7
	c-0.7,0.79-0.53,1.88-0.46,2.32c0.11,0.73,0.4,1.29,0.57,1.6c1.24,2.28,2.7,3.8,2.7,3.8c0.18,0.19,1.63,1.95,4.54,5.48
	c3.07,3.72,4.71,6.19,5.14,6.85c0.12,0.19,0.22,0.34,0.33,0.52c0.39,3.36,0.61,5.16,1.19,6.86c0.4,1.18,0.87,2.19,1.41,3.12
	c-0.14,5.11-0.18,4.83-0.15,5.34c0.1,1.8,6.24,4.92,8.14,8.09c1.08,1.8,2.28,3.01,3.67,4.21c4.21,3.63,6.15,7.43,8.83,9.33
	c3.26,5.86,5.1,10.7,6.33,13.75c8.35,20.69,27.76,54.84,34.29,63.95c1.07,1.49,4.39,5.94,4.33,11.73c-0.02,1.58-0.28,2.74-0.42,3.34
	c-2.89,12.29-4.33,18.43-5.5,21.78c-5.6,16.05-3.68,15.02-9.24,32.46c-0.74,0.36-1.11,1.07-1.27,1.4c-0.42,0.85-0.38,1.65-0.36,2.07
	c0.03,0.56,0.06,1.06,0.08,1.52c-2.87,10.13-2.49,17.35-1.89,24.71c0.05,0.61,0.11,1.19,0.18,1.75c-4.96-0.07-11.72-0.5-14.82-3.27
	c-2.28-2.03-3.38-3.48-3.91-4.39c-0.36-0.62-0.44-1.38-0.24-2.08l2.9-9.94c0.02-0.07,0.04-0.15,0.06-0.23
	c0.46-2.31,4.84-19.02,5.38-20.51c0.55-1.51,5.07-6.52,5.84-8.03c0.77-1.51,1.54-5.71,1.87-8.15c0.33-2.45,0.77-11.41,0.55-13.27
	c-0.11-0.93-0.52-1.57-0.91-1.98c-0.47-0.49-0.74-1.15-0.74-1.84v-0.02v-18.63c-0.18-3.74-1.02-10.14-4.96-16.3
	c-6.33-9.91-16.5-12.66-23.49-14.55c-4.59-1.24-13.08-3.43-23.49-0.58c-3.67,1-11.44,3.24-18.3,10.71
	c-6.8,7.4-8.82,15.62-9.47,19.01c-0.01,0.06-0.02,0.12-0.03,0.18c-0.06,0.48-0.35,2.82-0.6,4.22c-0.28,1.57-0.04,8.42,0.05,9.16
	c0.09,0.74,0.15,5.08,0,7.72c-0.15,2.64-0.88,3.26-1.76,4.04c-0.88,0.78-0.15,5.59,0,8.23c0.15,2.64,2.5,14.75,3.68,16.61
	c1.18,1.86,3.23,3.42,4.41,4.04c1.18,0.62,0.73,6.83,1.76,10.87c1.03,4.04,3.53,17.08,4.12,20.03c0.59,2.95-6.28,8.64-7.5,9.16
	c-2.41,1.03-4.72,1.79-6.9,2.35c-1.29-2.63-2.9-5.41-4.97-8.41c-11.83-17.12-9.09-16.05-19.44-30.41
	c-2.08-2.88-5.21-8.36-11.49-19.32c-0.31-0.53-0.89-1.57-1.36-3.08c-1.72-5.53,0.2-10.74,0.8-12.47
	c3.66-10.57,12.53-48.79,14.63-70.98c0.12-1.3,0.26-2.9,0.46-4.76c1.55-1.41,1.56-1.66,2.7-2.62c1.62-1.37,2.16-1.31,3.47-2.3
	c1.5-1.13,2.48-2.78,4.36-6.02c1.48-2.55,1.42-2.78,2.91-5.37c1.86-3.24,2.15-3.2,3.36-5.37c1.77-3.16,1.51-3.87,3.63-8.8
	c0.57-1.32,1.7-3.85,3.34-6.87c2.16-3.99,3.25-5.98,5.35-8.3c1.89-2.09,2.4-2.02,4.46-4.45c1.63-1.92,2.87-3.42,3.67-5.66
	c0.6-1.69,1.72-4.83-0.05-7.07c-0.93-1.18-2.59-1.99-4.3-1.91c-1.88,0.09-3.18,1.24-4.14,2.09c-0.88,0.78-0.94,1.1-2.77,3.65
	c-1.62,2.27-1.27,1.58-3.38,4.44c-1.88,2.55-2.1,3.01-2.93,3.34c-1.59,0.64-3.25-0.02-4.35-0.46c-0.86-0.34-1.57-0.79-2.17-1.25
	c-1.07-6.03-1.67-9.11-3.81-10.18c-0.05-0.02-0.1-0.03-0.15-0.05c0.19-0.09,0.4-0.2,0.72-0.34c2.28-1.06,3.43-1.61,4.11-2.4
	c0.25-0.28,0.93-1.08,0.93-2.15c0-1.44-1.23-2.37-1.37-2.47c-1.03-0.75-2.43-0.81-5.2-0.74c-1.53,0.04-2.28,0.29-3.01-0.18
	c-1.16-0.75-1.02-2.51-1.05-4.18c-0.02-1.24-0.52-3.55-1.51-8.18c-0.87-4.07-1.92-6.61-2.89-8.93c-1.86-4.44-2.9-5.3-4.02-5.5
	c-1.14-0.2-2.58,0.24-3.26,1.16c-0.93,1.26,0.1,2.74,0.42,5.14c0.27,2.01-0.24,3.75-1.27,7.24c-1.58,5.4-2.73,6.12-3.76,9.53
	c-1.29,4.3-0.85,7.74-0.25,12.37c0.17,1.29,1.16,5.38,3.13,13.5c1.01,4.17,1.24,5.08,1.31,6.78c0.04,1.02,0.01,1.98-0.08,2.9
	c-0.61,1.34-1.2,2.69-1.75,4.06c-4.17,10.4-10.04,20.47-14.57,29.37c-2.61,5.13-12.09,24.3-18.27,48.44
	c-0.94,3.66-4.75,18.96-6.26,39.71c-1.01,13.85-0.69,25.98,0.55,38.35c-0.93-0.42-1.68-0.78-2.1-1.02
	c-1.81-1.04-7.65-4.51-10.2-6.45c-1.35-1.03-2.02-1.78-2.35-2.25c-0.22-0.32-0.29-0.73-0.19-1.11l1.38-5.44
	c0.01-0.04,0.02-0.08,0.03-0.12c0.2-1.26,2.23-10.38,2.49-11.2c0.27-0.83,2.7-3.66,3.1-4.5c0.4-0.84,0.72-3.12,0.84-4.44
	c0.12-1.33,0.12-6.16-0.05-7.16c-0.09-0.5-0.34-0.83-0.57-1.04c-0.28-0.25-0.45-0.6-0.47-0.97l0-0.01l-0.52-10.03
	c-0.21-2.01-0.86-5.43-3.27-8.63c-3.87-5.15-9.73-6.33-13.75-7.15c-1.3-0.26-3.14-0.62-5.36-0.7c0-0.17,0.01-0.35,0.03-0.55
	c0.23-3.26,1.82-7.89,1.92-8.18c0.78-2.24,1.23-3.52,2.29-5.09c1.11-1.64,1.65-1.76,2.96-3.37c1.93-2.38,2.81-4.64,3.56-6.58
	c1.2-3.11,0.62-3.08,1.97-7.29c1.2-3.74,1.51-3.28,2.72-7.18c0.65-2.08,0.95-3.45,1.99-5.48c0.38-0.75,0.94-1.57,2.06-3.21
	c0.72-1.06,1.13-1.59,1.85-1.98c0.14-0.07,0.6-0.25,1.53-0.59c1.59-0.59,1.65-0.59,1.86-0.74c0.21-0.15,1.14-0.84,1.32-2
	c0.04-0.24,0.07-0.71-0.16-1.41c-0.58-1.71-2.12-2.7-2.8-3.13c-0.65-0.41-3.17-1.99-6.31-1.42c-1.6,0.29-2.75,1.03-3.95,1.79
	c-1.4,0.9-2.32,1.82-2.56,2.06c-1.11,1.13-0.99,1.41-2.15,2.67c-1,1.1-1.83,2-3.11,2.42c-0.58,0.19-1.24,0.28-2.97,0.05
	c-2.62-0.35-4.43-0.59-6.57-1.81c-0.83-0.47-2.76-1.6-4.23-3.83c-0.93-1.41-0.6-1.63-1.44-3.18c-1.84-3.37-5.11-5.41-6.88-6.51
	c-1.14-0.71-1.97-1.1-3.15-2.17c-1.17-1.05-1.87-2.02-2.38-2.73c-1.38-1.92-2.88-3.75-4.21-5.71c-4.32-6.39-6.31-6.84-10.57-13.12
	c-1.18-1.75-2.62-3.32-3.75-5.1c-0.07-0.11-1.01-1.6-2.64-3.07c-0.68-0.61-1.28-1.04-2.11-1.21c-0.89-0.19-1.62,0.01-1.89,0.09
	c-0.37,0.11-2.07,0.65-2.67,2.22c-0.4,1.04-0.11,1.99,0.11,2.75c0.29,0.97,0.6,1.21,1.77,3.19c0.75,1.27,1.45,2.48,1.25,2.64
	c-0.15,0.12-0.65-0.48-2-1.32c-0.87-0.54-0.96-0.47-1.64-0.92c-1.03-0.69-1.03-0.98-1.88-1.58c-0.66-0.47-1.49-1.05-2.65-1.12
	c-0.51-0.03-1.7,0-2.73,0.87c-0.24,0.2-1.15,1.02-1.27,2.33c-0.07,0.72,0.13,1.23,0.46,2.07c0,0,0.65,1.65,2.02,3.03
	c0.01,0.01,0.15,0.15,0.33,0.35l0,0c0.11,0.12,2.59,2.87,4.13,4.85c1.3,1.66,2.17,3.08,3.88,5.86c3.13,5.09,2.67,5.04,4.36,7.34
	c0.76,1.03,2.09,2.62,4.75,5.79c0.21,0.26,1.57,1.88,2.87,3.99c1.22,1.99,0.4,1.19,1.4,2.91c0.26,0.46,0.59,0.97,0.43,1.53
	c-0.14,0.5-0.61,0.78-0.79,0.89c-0.67,0.4-1.13,0.21-1.85,0.36c-1.12,0.24-1.83,1.08-2.21,1.54c-0.38,0.45-1.27,1.51-1.18,2.81
	c0.05,0.72,0.38,1.15,0.1,1.68c-0.21,0.41-0.54,0.41-0.89,0.78c-0.38,0.39-0.45,0.88-0.51,2.14c-0.1,2.16-0.15,3.25,0.16,4.27
	c0.13,0.41,0.32,0.81,0.7,1.59c0.72,1.48,1.57,2.84,2.53,4.36l0,0c2.29,3.61,3.6,4.69,5.51,8.08c0.11,0.19,0.18,0.33,0.22,0.39
	c0.29,0.54,1.72,3.19,2.57,6.24c0.41,1.48,0.58,3.5,0.9,7.53c0.31,3.86,0.04,3.04,0.28,5.46c0.11,1.11-0.02,2.23-0.02,3.34
	c0,0.37,0.01,0.98-0.33,1.61c-0.11,0.2-0.21,0.33-0.68,0.89c-0.6,0.72-0.94,1.12-1.02,1.2c-0.4,0.49-0.49,1.06-0.43,4.24
	c0.04,2.37,0.11,2.95,0.4,3.68c0.31,0.79,0.54,1.36,1.12,1.71c0.49,0.3,1.01,0.32,1.26,0.8c0.11,0.2,0.12,0.39,0.13,0.76
	c0.03,0.7-0.09,1.23-0.1,1.29c-0.22,0.97-0.04,2.54,0.03,3.61c0.14,2.35-0.14,4.8-0.5,6.83c-1.15-0.3-2.25-0.52-3.24-0.72
	c-2.62-0.53-7.45-1.44-13.23,0.33c0-0.01,0-0.01,0-0.02c-2.52-13.98-3.94-21.91-6.88-32.55c-1.88-6.82-4.65-16.69-9.89-28.51
	c-3.89-8.77-5.85-13.2-9.48-18.98c-3.65-5.81-5.82-10.39-10.14-19.55c-0.46-0.97-1.09-2.33-1.32-4.33
	c-0.27-2.27,0.17-3.67,0.73-8.17c0.34-2.73,0.51-4.1,0.51-5.02c0-1.11-0.08-3-2.33-10.31c-1.1-3.57-1.24-3.64-1.67-5.47
	c-0.62-2.65-0.86-4.81-1.1-6.95c-0.53-4.82-0.19-5.33-0.82-8.16c-0.48-2.18-1.07-3.58-1.76-5.24c-1.49-3.56-2.37-4.13-2.79-4.35
	c-1.36-0.71-3.03-0.48-3.16-0.46c-1.35,0.2-2.02,0.8-3.18,0.52c-0.31-0.07-0.15-0.09-1.5-0.76c-2.02-1-2.41-0.99-2.62-0.96
	c-0.89,0.11-1.35,0.7-1.71,0.41c-0.29-0.23-0.18-0.78-0.21-1.34c-0.06-1.37-0.9-2.24-1.53-2.89c-1.86-1.92-4.51-1.44-4.86-1.37
	c-0.14,0.03-3.12,0.66-4.83,3.41c-1.04,1.67-1.33,3.66-1.63,3.63c-0.11-0.01-0.11-0.27-0.21-0.95c-0.16-1.17-0.19-0.87-0.39-2.22
	c-0.21-1.45-0.3-2.62-0.32-2.91c-0.19-2.48-0.85-5.62-1.19-7.39c-0.66-3.42-1.1-6.97-1.97-14.07c-0.57-4.66-0.65-6.03-1.23-9.92
	c-0.81-5.45-0.87-4.29-1.06-6.4c-0.18-2.09-0.13-3.35-0.92-4.76c-0.33-0.59-1.08-1.86-2.59-2.21c-1.53-0.35-2.88,0.45-3.25,0.69
	c-2.08,1.34-2.81,3.96-3.13,5.12c-0.72,2.59-0.45,4.52,0,7.88c0.84,6.3,1.26,9.46,1.37,10.91c0.05,0.65,0.04,0.67-0.2,10.98
	c-0.18,7.75-0.27,11.64-0.2,12.3c0.17,1.78-0.09,3.65,0.03,5.44c0.03,0.5,0.11,1.47-0.19,1.64c-0.24,0.14-0.58-0.33-1.31-1.08
	c-0.73-0.74-0.71-0.58-1.68-1.5c-1.18-1.11-2-2.08-2.47-2.62c-1.06-1.22-0.93-0.97-4.15-4.39c-3.62-3.84-5.43-5.76-6.55-7.18
	c-2.03-2.57-3.72-5.17-3.98-5.57c-1.36-2.1-1.97-3.02-3.19-4.85c-0.93-1.4-1.44-2.14-2.31-3.02c-1.21-1.22-2.18-2.16-3.67-2.13
	c-1.31,0.03-2.34,0.79-2.69,1.06c-0.26,0.2-1.82,1.42-2.35,3.52c-0.24,0.95-0.16,1.66-0.01,3.04c0.16,1.44,0.53,2.58,0.66,2.94
	c0,0,0.02,0.06,0.05,0.14c0.74,2.08,2.08,3.98,4.4,8.73l0,0c1.82,3.73,2.73,5.59,6.89,10.83c2.19,2.76,4.79,7.89,9.99,18.13
	c3.65,7.2,3.44,7.48,6.57,13.35c1.82,3.42,4.14,7.78,7.57,13.06c4.15,6.39,5.31,7.02,9.69,13.94c2.81,4.44,4.21,6.66,5.34,9.3
	c2.48,5.82,2.22,8.74,4.31,17.7c1.47,6.29,1.76,5.54,4.13,14.27c1.26,4.63,3.28,12.11,4.86,21.29c1.46,8.51,1.95,15.01,2.66,24.43
	c1.19,15.84,0.26,15.06,1.43,21.44c0.74,4.04,2.46,13.52,7.47,23.44c1.59,3.16,3.4,6.12,5.27,11.56c2.04,5.94,2.46,9.91,2.58,11.33
	c0.31,3.53,0.11,6.18-0.22,10.33c-0.28,3.46-0.58,5.59-0.87,7.32c-0.3-0.38-0.69-0.87-1.22-1.62c-0.58-0.83-1.14-1.73-2.26-3.53
	c-2.56-4.13-2.28-3.99-2.92-4.7c-1.56-1.73-2.16-1.42-4.46-3.64c-1.31-1.27-2.14-2.37-3.04-3.55c-1.45-1.92-2.18-2.88-2.82-4.33
	c-0.87-1.95-0.63-2.63-1.65-3.69c-1.03-1.07-1.85-0.98-2.92-1.75c-2.25-1.61-1.86-4.29-2.69-7.29c-0.84-3.03-2.44-4.61-4.93-7.89
	c-4.5-5.95-4.75-8.06-10.88-17.85c-7.27-11.62-7.52-9.61-15.07-21.48c-6.95-10.93-7.08-13.18-12.04-21.14
	c-1.86-2.99-2.84-6.27-4.56-9.31c-0.27-0.48-0.99-1.73-0.98-3.28c0.01-0.75,0.18-1.32,0.43-1.99c0.82-2.22,1.84-3.82,2.01-4.18
	c1.41-2.97,1.77-3.82,2.7-5.73c1.12-2.29,1.14-2.18,2.7-5.29c2.14-4.24,2.06-4.35,3.62-7.33c0.28-0.54,1.33-2.36,3.42-6
	c0.08-0.14,0.98-1.7,2.45-3.54c1.22-1.54,1.79-1.96,2.4-2.25c0.53-0.26,0.72-0.25,2.33-0.92c1.21-0.51,1.54-0.7,1.85-1.03
	c0.22-0.23,0.76-0.82,0.7-1.71c-0.07-0.98-0.83-1.71-1.01-1.87c-1.11-1.05-2.63-1.22-4.34-1.4c-0.91-0.1-2.33-0.24-4.07,0.08
	c-2.65,0.49-4.27,1.73-5.52,2.71c-1.41,1.11-2.28,2.2-3.11,3.25c-1.33,1.68-1.18,1.94-2.44,3.38c-0.99,1.13-1.75,1.74-3.23,2.92
	c-1.78,1.42-2.32,1.59-2.9,1.59c-0.91,0.01-1.64-0.39-3-1.13c-1.09-0.59-2.07-1.12-2.91-2.07c-0.6-0.68-0.93-1.35-1.62-3.62
	c-0.69-2.27-1.08-3.98-1.1-4.04c-0.74-3.18-1-3.3-1.73-6.18c-1.12-4.48-0.51-4.33-1.63-8.76c-0.6-2.38-1.34-4.65-1.82-6.12
	c-0.91-2.78-0.9-2.4-1.46-4.26c-1.13-3.69-1-4.58-2.19-6.33c-0.63-0.92-1.55-2.24-3.24-2.82c-0.48-0.16-1.9-0.57-3.12,0.02
	c-0.94,0.45-1.25,1.24-1.45,1.75c-0.45,1.18-0.24,2.3,0.04,3.46c0.57,2.38,1.24,4.09,1.55,4.96c0.83,2.32,1.1,4.21,1.64,8
	c0.59,4.19,0.07,3.42,0.6,5.9c0,0,0.43,2.04,0.47,5.89c0,0.23,0,1.01-0.58,1.6c-0.12,0.12-0.58,0.58-1.06,0.45
	c-0.25-0.07-0.46-0.28-0.89-1.11c-0.61-1.17-0.76-1.71-0.76-1.71c-0.37-1.31-0.89-2.61-1.21-3.93c-0.36-1.47-1.13-3.02-2.68-6.12
	c-1.65-3.29-1.82-3.1-3.56-6.51c-1.51-2.96-3-6.15-3-6.15c-0.71-1.54-1.42-3.14-2.98-5c-1.35-1.6-2.24-2.1-3.05-2.35
	c-1.56-0.48-2.83,0-3.01,0.07c-1.17,0.46-1.63,1.32-1.76,1.56c-0.07,0.13-0.36,0.72-0.34,1.65c0.03,1.37,0.71,2.47,0.92,2.82
	c1.36,2.21,2.51,4.49,3.8,6.73c1.25,2.17,0.53,1.43,3.36,7.41c1.48,3.13,1.76,3.51,2.64,5.61c1.43,3.39,1.06,3.28,1.9,4.62
	c0.62,0.99,1.5,2.16,1.71,3.72c0.08,0.57,0.06,1.21-0.4,1.62c-0.08,0.07-0.52,0.45-1.08,0.34c-0.48-0.1-0.79-0.51-0.98-0.77
	c-0.63-0.83-1.47-1.56-2.02-2.44c-0.87-1.38-1.89-2.69-2.82-4.05c-1.17-1.72-1.75-2.57-2.53-3.65c-1.53-2.11-1.62-2.03-3.01-3.92
	c-0.86-1.18-2.19-2.98-3.6-5.39c-0.97-1.65-1.23-2.3-2.25-3.69c-1.45-1.98-2.34-2.58-2.99-2.93c-0.53-0.28-1.72-0.92-3.11-0.74
	c-1.21,0.15-1.89,0.84-2.15,1.11c-0.26,0.26-0.8,0.81-0.89,1.68c-0.07,0.78,0.27,1.44,0.49,1.86c2.04,3.93,0.22,1.35,2.03,4.19
	c1.9,3,3.29,4.87,4.97,7.36c1.79,2.65,1.54,2.5,4.18,6.46c1.91,2.87,2.86,4.3,3.4,4.97c0.48,0.59,1.55,2.04,3.68,4.93
	c0.7,0.95,1.39,1.91,1.03,2.43c-0.27,0.38-1.04,0.42-1.54,0.34c-0.69-0.11-1.2-0.48-1.38-0.62c-2.97-2.26-4.19-3.63-4.19-3.63
	c-1.84-2.06-1.41-1.16-4.76-4.59c-1.92-1.97-3.16-3.24-4.74-5.08c-0.23-0.27-1.28-1.32-3.36-3.42c-0.53-0.53-1.24-1.23-2.36-1.66
	c-0.49-0.19-1.3-0.5-2.06-0.27c-0.84,0.25-1.15,1.01-1.49,1.84c-0.18,0.44-0.38,0.93-0.32,1.6c0.07,0.88,0.54,1.57,0.75,1.87
	c3.37,4.83,5.08,6.38,5.08,6.38s5.51,5,10,10.8c1.92,2.49,3.27,4.66,4.67,6.9c2.12,3.4,2.38,4.25,4.25,7.44
	c2.01,3.44,4.23,7.24,7.73,11.48c3.44,4.17,4.74,4.68,7.15,8.45c0.47,0.74,1.41,2.28,3.2,6.24c2.36,5.25,3.69,9.17,4.45,11.32
	c1.42,4.02,1.8,4.48,6.21,14.88c9.09,21.43,7.31,19.05,10.67,25.77c2.91,5.81,8.04,15.16,11.55,20.77c1.12,1.79,2.71,4.21,4.49,7.7
	c0.29,0.58,0.53,1.06,0.73,1.48c-0.21,0.06-0.43,0.12-0.64,0.19c-2.06,0.65-6.41,2.08-10.11,6.3c-3.66,4.18-4.58,8.67-4.86,10.51
	c0,0.03-0.01,0.06-0.01,0.1c-0.02,0.26-0.12,1.53-0.22,2.29c-0.11,0.85,0.21,4.53,0.28,4.93c0.07,0.39,0.22,2.73,0.21,4.16
	c-0.01,1.43-0.41,1.78-0.89,2.22c-0.48,0.44,0.07,3.01,0.23,4.43c0.16,1.42,1.83,7.87,2.55,8.83c0.72,0.97,1.93,1.74,2.62,2.04
	c0.69,0.3,0.61,3.66,1.3,5.8c0.7,2.14,2.48,9.09,2.89,10.66c0.42,1.57-3.71,4.46-4.01,5.15c-0.11,0.25-1.44,1.28-3.15,2.52
	c0.28-7.97-2.05-18.18-3.03-22.45c-2.05-8.98-4.4-15.16-8.01-24.66c-3.64-9.58-5.13-11.96-9.11-22.96
	c-3.14-8.66-2.71-8.53-4.65-13.38c-1.14-2.84-1.7-5.9-2.84-8.75c-0.16-0.4-0.7-1.72-0.72-3.52c-0.01-1.33,0.26-2.26,0.35-2.54
	c0.36-1.16,0.76-1.46,1.28-2.5c0.89-1.81,0.93-3.44,0.96-4.53c0.01-0.61-0.17-1.68-0.54-3.83c-0.61-3.51-0.91-5.26-1.18-5.81
	c-0.07-0.14-0.42-0.84-0.44-1.78c-0.01-0.42,0.05-0.69,0.09-0.82c0.17-0.65,0.55-1.05,0.74-1.29c0.41-0.54,0.45-1.22,0.53-2.58
	c0.04-0.79,0.11-2.21-0.44-3.94c-0.32-1.02-0.61-1.95-1.49-2.87c-0.9-0.95-1.92-1.36-2.66-1.65c-0.71-0.28-2.27-0.8-4.32-0.68
	c-1.36,0.08-1.4,0.34-3.08,0.54c-2.16,0.25-2.37-0.15-4.2-0.01c-2.19,0.18-3.92,0.92-5.52,1.62c-1.99,0.86-1.78,1.09-3.45,1.69
	c-1.92,0.69-2.59,0.53-3.69,1.37c-0.53,0.4-0.56,0.58-1.88,1.74c-0.72,0.64-1.09,0.96-1.47,1.24c-1.54,1.11-2.14,0.84-3.63,1.82
	c-0.88,0.58-1.73,1.14-2.11,2.11c-0.36,0.91,0.08,1.21-0.08,3.02c-0.03,0.29-0.12,1.21-0.46,2.27c-0.46,1.48-0.89,1.69-1.4,2.96
	c-0.12,0.29-0.8,2.04-0.6,4.01c0.11,1.07,0.48,1.84,1.21,3.33c1.22,2.47,2.43,4.07,3.95,6.59c0.61,1.01,0.87,1.5,1.01,1.77
	c0.21,0.41,0.32,0.65,0.57,1.12c0,0,0.34,0.62,0.77,1.28c0.33,0.51,2.19,3.41,4.64,5.46c0.57,0.48,0.91,0.76,1.48,1.06
	c0.8,0.41,1.1,0.35,1.55,0.75c0.5,0.45,0.66,1.01,0.8,1.53c0.26,0.95,0.18,1.74,0.17,1.85c-0.02,0.21,0.23,2.71,0.72,7.7
	c0.19,1.95,0.39,3.74,0.58,5.31c-4.27-2.85-9.16-3.51-12.77-3.98c-3.07-0.4-8.74-1.08-15.27,1.49c-1.55,0.61-4.27,1.71-7.07,3.93
	v52.05c0.25,1.25,0.53,2.69,0.99,3.81c0.97,2.4,3.56,10.21,4.16,11.97c0.6,1.77-3.89,5.4-4.18,6.21
	C0.91,720.06,0.55,720.43,0,720.94z M2484.55,531.24c0.33-0.04,1.13-0.11,3.29,0.64c1.2,0.42,2.77,0.97,4.73,2.22
	c2.17,1.38,1.71,1.63,4.04,3.1c0.92,0.58,1.81,1.05,2.87,2.1c0.82,0.81,1.24,1.48,1.38,1.71c0.28,0.47,0.91,1.5,1.04,2.77
	c0.12,1.2-0.26,1.99-0.64,3.14c-0.3,0.93-0.54,2.8-1.03,6.55c-0.4,3.1-0.23,2.69-0.56,5.14c-0.42,3.08-0.92,5.48-1.22,6.81
	c-0.16,0.7-0.38,1.63-1.25,4.86c-1.11,4.08-1.99,7.12-2.01,7.2c-1.63,5.64-2.08,7.94-2.91,11.14c-0.09-8.92-0.77-17.86-2.3-27.72
	c-2-12.86-4.83-23.23-6.73-29.39C2483.65,531.44,2483.99,531.31,2484.55,531.24z M2379.12,640.78c7.06-16.4,8.95-19.01,11.01-24.34
	c0.01,1.25,0.06,2.57,0.25,3.69c0.55,3.09,1.72,13.02,2,15.27c0.28,2.25-5.5,5.61-6,6.51c-0.32,0.58-5.93,3.92-10.37,6.5
	C2376.73,646.42,2377.59,644.33,2379.12,640.78z M2160.98,532.13c6.34-9.22,25.06-43.7,32.99-64.53c0.46-1.22,1.02-2.72,1.71-4.47
	c1.87-0.94,1.94-1.19,3.3-1.81c1.93-0.89,2.43-0.68,3.96-1.29c1.75-0.69,3.13-2.02,5.8-4.64c2.11-2.06,2.11-2.3,4.23-4.4
	c2.22-2.19,2.77-2.48,3.91-3.54c0.65,0.44,1.22,0.89,1.66,1.38c1.41,1.55,2.82,2.51,4.42,3.42c4.83,2.74,7.48,6.1,10.47,7.44
	c4.34,5.12,7.08,9.51,8.87,12.26c12.2,18.68,37.87,48.41,46.04,56.08c1.33,1.25,5.46,4.97,6.52,10.67c0.21,1.1,0.24,2.01,0.24,2.67
	c-1,2.33-2.01,4.79-3.01,7.37c-0.05-0.01-0.1-0.03-0.16-0.03c-0.25-0.04-0.98-0.13-1.65,0.24c-0.13,0.07-0.61,0.36-1.09,1.48
	c-0.03,0.08-0.06,0.15-0.09,0.22v-3.38c-0.22-4.01-1.25-10.88-6.06-17.48c-7.73-10.63-20.15-13.58-28.68-15.61
	c-5.6-1.33-15.97-3.68-28.68-0.62c-4.48,1.08-13.97,3.47-22.35,11.49c-8.3,7.94-10.77,16.76-11.56,20.39
	c-0.01,0.06-0.02,0.12-0.03,0.19c-0.07,0.52-0.43,3.02-0.73,4.53c-0.34,1.69-0.04,9.03,0.07,9.82c0.11,0.79,0.18,5.45,0,8.28
	c-0.18,2.83-1.08,3.5-2.15,4.33c-1.08,0.83-0.18,5.99,0,8.82c0.18,2.83,3.05,15.82,4.49,17.82c1.44,2,3.95,3.66,5.39,4.33
	c1.44,0.67,0.9,7.33,2.15,11.66c0.96,3.31,2.97,12.26,4.18,17.71c-2.31-1.97-4.24-2.76-6.09-4.08c-4.58-3.27-2.32-5.3-7.87-12.27
	c-2.25-2.83-8.45-9.81-9.91-13.29c-0.16-0.37-0.46-1.11-0.52-2.1c-0.1-1.7,0.61-2.63,0.9-3.74c0.26-1,0.18-2.23-1.66-5.85
	c-1.72-3.38-2.58-5.07-4.65-7.51c-4.02-4.74-8.37-13.19-14.51-23.38c-0.9-3.38-2.02-7.73-3.48-13.42c-0.15-0.59-0.44-1.75-0.49-3.33
	C2156.71,538.15,2159.94,533.64,2160.98,532.13z M1711.67,669.88c0.32-1.5,1.65-8.11,2.21-10.16c0.48-1.8,0.36-4.44,0.75-5.28
	c0.27,0.35,0.57,0.65,0.95,0.88c0.68,0.42,1.6,0.69,1.93,1.47c0.24,0.56,0.02,1.01-0.13,1.49c-0.2,0.65-0.16,1.66-0.07,3.69
	c0.08,1.78,0.14,3.21,0.77,4.77c1.39,3.47,4.13,4.01,4.22,6.39c0.05,1.38-0.85,1.59-0.57,3.29c0.18,1.11,0.74,2.06,1.32,3.04
	c0,0,0,0,0,0.01c-3.11-1.95-7.15-4.54-7.36-4.95C1715.37,673.9,1711.35,671.38,1711.67,669.88z M1601.14,716.47
	c2.98-5.47,2.85-4.36,13.08-20.9c6.38-10.31,7.03-11.71,7.69-13.44c0.56-1.47,0.97-2.75,1.29-3.9c1.4,12.14,1.7,12.13,1.98,17.47
	c0.08,1.6,0.05,5.57-0.04,12.69c-3.57-0.05-7.98,0.4-12.78,2.28c-2.65,1.04-8.09,3.26-12.69,8.76
	C1600.34,718.03,1600.82,717.06,1601.14,716.47z M1591.93,736.07c0.55-1.18,1.06-2.29,1.55-3.35c-0.21,1.16-0.32,2.14-0.37,2.84
	c0,0.05-0.01,0.09-0.01,0.13c0,0.37-0.02,2.14-0.09,3.22c-0.02,0.36,0.04,1.08,0.13,1.92h-3.4
	C1590.35,739.51,1591.07,737.94,1591.93,736.07z M1508.56,486.74c0.1-0.21,0.25-0.58,0.29-1.06c0.01-0.15,0.03-0.4-0.02-0.68
	c0.27,0.79,0.46,1.55,0.04,2.11c-0.18,0.23-0.41,0.35-0.72,0.45C1508.29,487.3,1508.42,487.03,1508.56,486.74z M1501.15,498.09
	c0.06-0.12,0.12-0.22,0.19-0.35c0.25-0.45,1.19-2.11,2.99-4.66c0.18-0.25,0.34-0.48,0.5-0.71c0.58,0.32,1.4,0.41,3,0.56
	c0.22,0.02,0.38,0.04,0.51,0.05c-0.02,0.02-0.05,0.04-0.08,0.06c-1.07,1.12-0.76,3.13-0.1,7.03c-0.26,0.42-0.6,0.84-1.05,1.24
	c-0.58,0.51-1.45,1.27-2.55,1.23c-0.58-0.02-0.82-0.25-2.52-1.4c-0.45-0.3-0.77-0.51-1.02-0.67
	C1501.08,499.81,1501.11,499.05,1501.15,498.09z M1465.52,575.1c3.78-6.19,14.67-29.15,19.07-42.9c0.65-2.03,1.61-5.24,3.44-9.18
	c1.63-1.35,2.71-3.9,5.24-6.43c0.84-0.84,1.56-1.68,2.17-2.89c1.07-2.11,4.8-4.39,4.86-5.57c1.62,0.91,2.72,1.89,4.79,3.74
	c1.66,1.48,2.89,2.78,3.53,3.46c2.37,2.54,2.36,3.03,4.13,4.57c1.21,1.06,1.38,0.97,3.22,2.54c1.47,1.25,1.48,1.41,2.94,2.64
	c1.85,1.56,2.8,2.35,3.97,2.72c1.02,0.32,1.33,0.16,2.62,0.64c0.9,0.34,0.96,0.49,2.21,1.01c0.53,1.08,0.97,2.04,1.32,2.8
	c6.11,13.06,19.84,34.42,24.37,40.06c0.74,0.92,3.04,3.68,3.2,7.42c0.04,1.02-0.09,1.78-0.16,2.17c-1.44,8.04-2.16,12.07-2.79,14.27
	c-3.19,11-1.75,9.76-5.23,22.76c-2.05,7.65-1.51,12.7-0.81,17.86c1.16,8.57,5.28,10.06,6.74,18.85c0.77,4.65-0.31,6.78-2.1,12.46
	h-8.88c-1.26-0.94-2.18-1.63-3.55-2.45c-1.64-0.98-2.46-1.47-3.23-1.58c-0.57-0.08-1.22-0.08-1.55-0.53
	c-0.24-0.33-0.16-0.7-0.09-1.5c0.06-0.7,0.01-1.4,0.06-2.09c0.14-1.81,0.03-3.69,0.04-5.46c0.03-2.14,0.25-3.66,0.71-6.7
	c0.67-4.46,1.21-5.59,1.71-10.04c0.15-1.36,0.23-2.04,0.26-2.68c0.19-4.57,0.28-6.85,0.28-6.94c-0.01-0.23-0.02-0.85,0.39-1.22
	c0.29-0.27,0.65-0.29,0.95-0.32c0,0,0.98-0.12,2.71-0.87c1.05-0.45,1.7-1.11,1.99-1.4c0.4-0.4,0.77-0.88,2.04-3.8
	c0.67-1.55,1.01-2.34,1.16-2.95c0.16-0.64,0.2-1.05,0.3-3.52c0.27-6.7-0.11-1.62-0.08-5.99c0-0.45,0.01-1.15-0.43-1.82
	c-0.07-0.11-0.76-1.12-1.84-1.2c-0.74-0.06-1.43,0.32-2.53,0.93c-0.53,0.3-1,0.61-1.12,0.49c-0.09-0.08,0.07-0.3,0.19-0.74
	c0.11-0.42,0.1-0.7,0.12-1.05c0.04-0.87,0.22-1.47,0.31-2.08c0.17-1.1,0.04-1.97-0.12-3.21c-0.63-4.72-0.46-4.67-0.83-6.61
	c-0.78-4.11-1.57-8.3-4.33-12.52c-2.71-4.15-6.08-6.44-7.72-7.53c-2.39-1.59-8.19-4.94-16.24-5.12c-7.74-0.18-13.27,2.67-17.31,4.75
	c-2.95,1.52-5.98,3.07-8.93,6.34c-0.93,1.02-5.1,5.83-6,12.33c-0.41,3.03-0.25,7.41-0.24,7.6c0.08,1.84,0.11,2.76,0.21,3.55
	c0.1,0.82,0.13,1.66,0.22,2.48c0.1,1.03,0.2,1.86-0.28,2.24c-0.2,0.16-0.41,0.19-0.63,0.47c-0.24,0.31-0.26,0.66-0.26,0.78
	c-0.02,0.3,0.06,0.61,0.68,1.59c0.56,0.9,0.69,0.94,0.84,1.35c0.23,0.6,0.2,1.11,0.19,1.41c-0.05,1.33,0.2,2.65,0.19,3.98
	c-0.02,2.26-0.01,4.68,0.01,5.72c0.05,2.65,0.08,4.78,0.63,7.46c0.4,1.97,0.78,3.89,1.97,6.14c0.89,1.69,2.57,4.21,3.11,5.01
	c0.52,0.78,0.94,1.63,1.47,2.4c0.39,0.55,0.79,1.07,0.99,1.9c0.09,0.37,0.09,0.61,0.11,1.19c0.07,1.63,0.11,1.37,0.15,2.6
	c0.08,2.21,0.14,4.18-0.13,6.6c-0.22,1.99-0.33,3-0.81,4.27c-0.66,1.76-1.52,2.8-3.01,4.64c0,0-1.21,1.48-2.71,2.16
	c-0.36,0.16-0.61,0.21-0.82,0.21c-0.55,0.03-0.84-0.2-1.4-0.35c-0.44-0.12-0.78-0.11-1.46-0.1c-0.85,0.01-1.69,0.16-2.41,0.33
	c-1.49-3.17-2.25-5.17-2.11-8.78c0.32-8.91,4.23-10.92,4.28-19.57c0.03-5.21-0.07-10.28-3.08-17.61c-5.1-12.45-3.52-11.4-8.08-21.89
	c-0.91-2.1-2.14-6-4.59-13.79c-0.12-0.38-0.35-1.11-0.43-2.13C1462.96,579.14,1464.9,576.11,1465.52,575.1z M1088.06,716.5
	c-0.66,0.83-1.19,2.63-2.26,6.22c-1.28,4.31-2.29,9.21-3.04,13.16c-0.2-0.1-0.31-0.16-0.31-0.16l-16.84-7.67l-5.19-2.05
	c-0.05-0.02-0.1-0.04-0.15-0.06c-2.51-1.25-12.99-6.16-15.34-7.67c-2.37-1.52-9.99-6.61-13.3-9.4c-1.75-1.48-2.6-2.53-3-3.19
	c-0.28-0.45-0.34-1-0.19-1.51l2.23-7.23c0.02-0.05,0.03-0.11,0.04-0.16c0.35-1.68,3.72-13.83,4.14-14.92
	c0.42-1.1,3.9-4.74,4.49-5.84c0.59-1.1,1.19-4.15,1.44-5.93c0.25-1.78,0.59-8.3,0.42-9.65c-0.08-0.68-0.4-1.14-0.7-1.44
	c-0.35-0.35-0.56-0.82-0.57-1.31c1.11,0.91,2.76,2.11,4.91,3.09c0.57,0.26,0.61,0.25,1.82,0.79c4.62,2.04,5.45,2.87,5.82,3.26
	c0.78,0.84,0.36,0.78,1.67,2.65c1.51,2.15,2.18,2.37,3.1,3.76l0.93-1.88c0.52,2.24,1.11,3.79,1.76,4.34
	c0.23,0.19,1.88,1.45,3.36,3.57c0.69,0.99,1.12,1.8,1.12,1.8c0.6,1.15,0.72,1.87,1.7,3.4c1.39,2.17,2.13,2.26,5.87,6.18
	c0.97,1,1.86,2.02,3.65,4.06c3.91,4.43,5.88,6.65,7.41,8.76c4.25,5.84,3.49,6.85,5.78,10.08c0.19,0.27,0.68,0.95,0.71,1.89
	C1089.6,714.8,1088.61,715.82,1088.06,716.5z M1078.16,605.9c0.12,0.52,0.6,2.22,2.04,3.41c0.84,0.68,1.61,0.89,1.55,1.18
	c-0.06,0.27-0.78,0.32-2.19,0.41c-2.27,0.14-2.73-0.13-2.98-0.38c-0.37-0.35-0.47-0.8-0.51-1.03c-0.88-4.51-0.74-6.39-0.74-6.39
	c0.24-3.49,0.55-7.8,1.03-7.8c0.23,0.01,0.22,1.11,1,3.92c0.51,1.85,0.66,1.87,0.8,2.81
	C1078.46,604.09,1077.79,604.32,1078.16,605.9z M1202.81,588.02c-0.21,1.49-0.63,2.63-1.38,4.25c-1.68-1.99-4.45-4.23-6.35-5.13
	c-0.19-0.09-0.54-0.25-0.62-0.56c-0.17-0.64,0.99-1.28,3.23-3.12c1.43-1.18,1.4-1.28,2.6-2.2c1.06-0.81,1.4-0.98,2.42-1.71
	c0.29-0.22,0.57-0.42,0.83-0.63c-0.25,0.77-0.53,1.44-0.71,3.17C1202.52,585.17,1203.16,585.54,1202.81,588.02z M1205.34,565.39
	c-0.32,2.11-1.14,2.01-1.64,4.18c-3.53,0.01-7.2,1.9-9.59,3.13c-1.59,0.82-3.36,1.9-3.62,1.57c-0.07-0.09,0.01-0.26,0.14-0.56
	c0.48-1.15,0.26-1.03,0.76-2.29c1.26-3.15,1.89-4.74,3.15-6.2c1.06-1.24,2.3-1.94,4.76-3.34c2.97-1.68,4.63-2.63,5.11-2.89
	C1204.82,563.04,1205.68,563.19,1205.34,565.39z M1204.23,556.09c0.03,0.65,0.07,1.29,0.11,1.89c-0.17-0.04-0.32-0.11-0.42-0.24
	C1203.67,557.41,1203.86,556.79,1204.23,556.09z M1017.51,588.21c1.36-3.54,2.04-5.32,2.41-6.06c1.15-2.31,1.72-3.46,2.47-4.25
	c1.13-1.2,1.74-1.27,2.3-2.4c0.5-1.02,0.17-1.3,0.74-3.65c0.3-1.21,0.46-1.88,0.9-2.74c0.14-0.26,0.57-0.93,1.45-2.25
	c0.37-0.56,0.61-0.92,0.97-1.5c0.32-0.54,0.52-0.86,0.78-1.34c0.58-1.07,0.92-1.96,1.11-2.45c0.05-0.13,0.08-0.23,0.09-0.24
	c1.5-4.3,21.45-28.09,21.45-28.09s8.55-10.19,11.18-12.73c0.28-0.27,0.49-0.45,0.61-0.53c0.01-0.01,0.02-0.01,0.03-0.02
	c0.12-0.07,0.17-0.09,0.24-0.15c0.35-0.34,0.72-0.67,1-0.92c0.29-0.24,0.48-0.41,0.48-0.41c0.7-0.6,1.1-2.34,1.64-3.82
	c0.79-2.11,1.92-3.77,3.03-5.41c0.53-0.78,0.88-1.7,1.49-2.42c0.29-0.34,0.66-0.72,0.56-1.07c-0.08-0.31-0.42-0.28-1.02-0.78
	c-0.44-0.37-0.38-0.47-0.89-0.92c-0.59-0.51-0.73-0.42-0.8-0.64l-0.27-0.07c0.26-0.41,0.6-0.92,1.02-1.56
	c1.13-1.7,1.7-2.55,1.99-2.89c1.3-1.47,2.54-2.1,3.45-2.69c2.78-1.76,4.28-4.22,6.03-7.12c1.22-2,1.94-3.86,3.4-7.57
	c1.56-3.98,1.51-4.65,2.65-6.36c1.05-1.57,1.53-1.66,3.3-3.41c0.28,0.33,0.62,0.67,1.05,0.99c1.1,0.82,2.19,1.06,4.1,1.37
	c2.94,0.47,4.42,0.7,6.46,0.77c4.11,0.14,4.65-0.38,7.78-0.01c1.66,0.19,2.8,0.49,4.61,0.97c3.5,0.92,3.83,1.38,8.56,2.87
	c3.71,1.17,5.56,1.76,6.57,1.76c0.78-0.01,2.06-0.09,3.47,0.58c0.46,0.22,0.85,0.49,1.18,0.75l-1.19,0.95
	c-1.02,0.93-1.14,2.35-1.26,3.77c-0.27,3.28,1.81,5.92,2.42,6.7c2.11,2.69,4.86,3.76,6.24,4.3c2.75,1.07,5.23,1.44,5.23,1.44
	s3.52,0.52,4.94,1.67c0.39,0.33,0.65,0.61,0.65,0.61c0.39,0.46,0.47,0.72,0.83,1.16c0.29,0.34,0.54,0.55,0.76,0.72
	c1.16,0.92,2.03,0.78,4.14,1.87c0.22,0.11,0.38,0.2,0.44,0.23c1.72,0.96,2.77,2.02,3.12,2.37c0.87,0.86,3.22,2.99,5.8,4.47
	c2.51,1.43,3.13,1.04,5.18,2.59c0.49,0.36,0.55,0.46,2.86,2.75c2.72,2.71,4.1,4.07,4.71,4.53c2.35,1.82,2.96,1.59,3.79,2.89
	c0.32,0.5,0.92,1.62,1.96,2.73c0.26,0.27,0.51,0.54,0.89,0.85c0.63,0.52,0.96,0.64,1.57,1.17c0.37,0.31,0.6,0.58,0.82,0.82
	c0.95,1.07,1.39,2,1.86,2.78c0.75,1.23,0.95,1.04,2.19,2.65c1.57,2.04,2.71,4.27,3.23,5.24c0.19,0.37,0.72,1.42,1.67,2.61
	c0.19,0.24,0.35,0.42,0.45,0.54c0.99,1.14,1.86,1.87,2.3,2.26c1.33,1.18,2.37,2.1,2.96,3.36c-5.62,2.04-9.48,5.24-11.4,6.87
	c-8.75,7.44-12.27,12.21-13.91,11.28c-0.98-0.55-0.23-2.54-2.49-8.8c0,0-0.09-0.24-0.2-0.55c-2.23-5.95-6.15-11.73-6.15-11.73
	c-4.83-7.1-4.32-8.78-9.61-16.42c-4.71-6.8-8.93-12.88-16.69-17.92c-3.09-2.01-8.65-5.53-16.72-6.56
	c-9.2-1.18-16.37,1.56-20.47,3.18c-4.05,1.6-10.13,4.01-14.83,9.33c-1.67,1.89-2.97,3.93-6.15,6.56c-2.12,1.76-3.46,2.42-5.76,4.68
	c-0.54,0.54-2.45,2.42-3.86,4.53c-1.85,2.77-2.42,5.28-3.46,11.33c-1.45,8.43-2.17,12.65-2.33,15.85
	c-0.29,6.12-0.44,9.17,0.38,13.25c0,0,1.71,8.49,1.27,12.87c-0.1,1.04-0.29,2.05-0.29,2.05c-0.31,1.74-0.7,2.89-0.96,3.76
	c-0.51,1.74-0.68,3.05-0.95,5.11c-0.27,2.16-0.68,5.48,0.05,9.49c0.4,2.17,0.61,3.29,1.55,4.25c0.53,0.55,1.93,1.12,4.74,2.28
	c0.47,0.19,0.88,0.36,1.25,0.51c-0.03,0-0.05,0-0.08-0.01c-1.28-0.1-2.15-0.22-3.88-0.44c-2.13-0.28-3.99-0.53-6.4-1.07
	c-0.21-0.05-1.14-0.26-2.3-0.57c-1.19-0.33-4.48-1.26-9.97-3.61c-4.13-1.77-4.65-2.26-7-2.83c-1.91-0.47-2.2-0.29-3.42-0.78
	c-2.66-1.08-2.68-2.46-5.7-4.71c-3-2.23-6.22-3.32-6.22-3.32c-1.84-0.62-2.65-0.58-3.95-1.51c-1.31-0.94-1.55-1.72-2.99-2.27
	c-1.06-0.4-1.23-0.09-2.61-0.58c-1.03-0.38-0.99-0.57-2.64-1.36c-1.59-0.77-2-0.76-2.28-1.26
	C1016.81,590.06,1017.11,589.25,1017.51,588.21z M953.25,720.08c-0.06-2.05-1.37-4.9-3.36-7.09c-0.77-0.84-1.82-1.79-1.49-2.77
	c0.21-0.64,0.92-0.98,1.62-1.34c3.11-1.55,4.66-2.33,5.1-2.67c2.49-1.92-0.44-4.8,1.62-9.45c0.51-1.15,1.62-2.41,3.86-4.93
	c4.19-4.73,5.21-4.5,6.22-6.78c0.29-0.64,2.28-5.14-0.12-8.01c-0.59-0.7-1.53-1.41-1.87-2.77c-0.22-0.9-0.06-1.59,0.25-2.77
	c1.33-5.09,1.95-6.17,1.24-7.6c-0.39-0.8-0.68-0.66-1.24-1.75c-0.71-1.37-0.83-2.72-0.75-3.9c0.19-2.72,1.39-3.94,2.74-7.4
	c0.9-2.32,1.9-4.87,1.99-8.22c0.05-1.94-0.23-3.1,0.25-5.34c0.45-2.12,1.24-3.62,1.49-4.11c1.53-3.02,3.88-9.94,6.06-16.99
	c2.37,3.6,6.36,6.98,11.64,10.55c-0.84,0.67-1.68,1.42-2.5,2.27c-5.22,5.38-6.78,11.36-7.27,13.83c-0.01,0.04-0.02,0.08-0.02,0.13
	c-0.05,0.35-0.27,2.05-0.46,3.07c-0.21,1.14-0.03,6.13,0.04,6.66c0.07,0.54,0.11,3.7,0,5.62c-0.11,1.92-0.68,2.37-1.35,2.94
	c-0.68,0.56-0.11,4.07,0,5.98c0.11,1.92,1.92,10.73,2.82,12.08c0.9,1.36,2.48,2.48,3.39,2.94c0.9,0.45,0.56,4.97,1.35,7.9
	c0.79,2.94,2.71,12.42,3.16,14.57c0.45,2.15-5.31,5.76-5.76,6.66c-0.45,0.9-13.66,9.03-15.47,10.16c-1.3,0.81-12.75,6.35-19.49,9.7
	c0.69-0.94,2.19-3.03,3.82-5.72C953.22,721.48,953.27,720.57,953.25,720.08z M780.75,697.68l3.07-9.94
	c0.02-0.07,0.04-0.15,0.06-0.22c0.48-2.31,5.11-19.01,5.68-20.5c0.58-1.51,5.35-6.52,6.17-8.03c0.81-1.51,1.63-5.7,1.98-8.15
	c0.19-1.3,0.4-4.46,0.53-7.41c1.38,4.75,2.72,9.71,4.17,17.64c1.74,9.48,2.3,15.93,2.53,19.11c0.74,10.34-0.09,12.98,0.05,22.55
	c0.11,7.84,0.76,12.22,1.49,16.05c-1.35-0.7-2.43-1.3-3.07-1.71c-3.26-2.1-13.74-9.08-18.27-12.92c-2.4-2.03-3.57-3.48-4.13-4.39
	C780.62,699.14,780.54,698.38,780.75,697.68z M599.12,651.58c1.42,4.38,4.9,16.02,5.32,17.88c0.02,0.07,0.04,0.14,0.06,0.21
	l3.16,9.43c0.22,0.66,0.13,1.38-0.26,1.97c-0.58,0.86-1.78,2.24-4.26,4.16c-0.24,0.19-0.52,0.36-0.8,0.52
	c-2.63-3.71-4.06-6.18-4.73-10.88C596.12,664.35,599.68,660.35,599.12,651.58z M532.69,714.19l1.18-4.67
	c0.16,0.46,0.79,2.34,0.94,4.21c0.02,0.24,0.04,0.49,0.04,0.49c0.07,1.2,0.01,1.77-0.02,2.97c0,0.01,0,0.03,0,0.05
	c-1.09-0.87-1.66-1.51-1.95-1.94C532.66,714.98,532.6,714.57,532.69,714.19z M498.33,699.7c0.69,0.3,0.61,3.66,1.3,5.8
	c0.7,2.14,2.48,9.09,2.89,10.66c0.42,1.57-3.71,4.46-4.01,5.15c-0.05,0.1-0.32,0.36-0.73,0.69c0.29-5.79,0.22-11.02,0.13-15.58
	c-0.05-2.43-0.09-4.75-0.14-7C497.98,699.53,498.17,699.63,498.33,699.7z"/>
</svg>
