<?xml version="1.0" encoding="utf-8"?>
<!-- Generator: Adobe Illustrator 26.5.0, SVG Export Plug-In . SVG Version: 6.00 Build 0)  -->
<svg version="1.1" id="Layer_1" xmlns="http://www.w3.org/2000/svg" xmlns:xlink="http://www.w3.org/1999/xlink" x="0px" y="0px"
	 viewBox="0 0 595.28 419.53" style="enable-background:new 0 0 595.28 419.53;" xml:space="preserve">
<style type="text/css">
	.st0{fill:#010101;}
</style>
<g>
	<g>
		<path class="st0" d="M341.55,232.2c-2.16,0-4.48-0.16-6.97-0.5c-2.62-0.37-4.45-2.78-4.08-5.4c0.37-2.62,2.76-4.47,5.4-4.08
			c11.87,1.65,18.15-2.07,21.18-5.01l-15.7-10.74c-1.85-1.26-2.57-3.63-1.75-5.71l8.84-22.36c2.31-6.32,3.55-16.83,3.55-30.29
			c0-35.63-28.97-65.03-64.59-65.53c-35.48,0.5-64.46,29.9-64.46,65.53c0,13.47,1.24,23.98,3.6,30.4l8.79,22.25
			c0.82,2.08,0.1,4.45-1.75,5.71l-15.68,10.73c3.04,2.94,9.36,6.64,21.16,5.02c2.62-0.39,5.04,1.46,5.4,4.08
			c0.36,2.62-1.46,5.04-4.08,5.4c-25.62,3.54-33.32-13.01-33.64-13.72c-0.94-2.11-0.23-4.59,1.67-5.9l16.6-11.36l-7.43-18.8
			c-2.82-7.69-4.23-19.02-4.23-33.81c0-40.84,33.21-74.53,74.03-75.1c40.95,0.57,74.16,34.26,74.16,75.1
			c0,14.78-1.41,26.12-4.18,33.7l-7.48,18.92l16.6,11.36c1.91,1.3,2.61,3.78,1.67,5.9C367.93,218.62,361.64,232.2,341.55,232.2z"/>
		<path class="st0" d="M286.53,226.54c-30.17,0-39.82-24.21-44.45-35.85c-11.39-28.56,5.04-59.83,5.75-61.15
			c0.7-1.3,1.95-2.21,3.4-2.46c1.48-0.25,2.95,0.18,4.03,1.16c25.79,23.31,77.36,34.64,77.88,34.75c2.31,0.5,3.91,2.6,3.77,4.97
			C333.56,224.17,287.01,226.52,286.53,226.54C286.53,226.54,286.53,226.54,286.53,226.54z M253.81,139.52
			c-3.81,9.47-10.01,29.66-2.85,47.63c6.01,15.09,13.7,29.82,35.39,29.82c1.33-0.06,36.06-2.1,40.65-45.57
			C314.69,168.36,277.82,158.14,253.81,139.52z"/>
		<path class="st0" d="M358.12,332.1c-2.65,0-4.79-2.14-4.79-4.79v-32.24c0-13.49-6.41-26.43-17.14-34.6L315.89,245l-24.23,42.57
			c-1.7,2.98-6.62,2.99-8.32,0L259.1,245l-20.29,15.47c-10.73,8.18-17.14,21.11-17.14,34.61v32.24c0,2.65-2.14,4.79-4.79,4.79
			c-2.65,0-4.79-2.14-4.79-4.79v-32.24c0-16.47,7.82-32.25,20.92-42.22l24.64-18.78c1.1-0.84,2.52-1.16,3.86-0.88
			c1.36,0.28,2.52,1.12,3.21,2.32l22.78,40.01l22.78-40.01c0.68-1.2,1.85-2.04,3.2-2.32c1.36-0.28,2.76,0.04,3.86,0.88l24.65,18.79
			c13.09,9.97,20.91,25.75,20.91,42.22v32.24C362.9,329.96,360.76,332.1,358.12,332.1z"/>
	</g>
	<path class="st0" d="M287.5,368.41c-92.81,0-168.32-75.51-168.32-168.32c0-92.81,75.51-168.31,168.32-168.31
		c92.81,0,168.32,75.51,168.32,168.31C455.82,292.9,380.31,368.41,287.5,368.41z M287.5,41.35c-87.53,0-158.74,71.21-158.74,158.74
		c0,87.53,71.21,158.74,158.74,158.74c87.53,0,158.74-71.21,158.74-158.74C446.24,112.56,375.03,41.35,287.5,41.35z"/>
</g>
</svg>
