<?xml version="1.0" encoding="utf-8"?>
<!-- Generator: Adobe Illustrator 26.5.0, SVG Export Plug-In . SVG Version: 6.00 Build 0)  -->
<svg version="1.1" id="Layer_1" xmlns="http://www.w3.org/2000/svg" xmlns:xlink="http://www.w3.org/1999/xlink" x="0px" y="0px"
	 viewBox="0 0 595.28 419.53" style="enable-background:new 0 0 595.28 419.53;" xml:space="preserve">
<style type="text/css">
	.st0{fill:#010101;}
</style>
<g>
	<path class="st0" d="M399.34,260.59c-2.93,0-5.31-2.37-5.31-5.31V134.94c0-53.82-43.79-97.61-97.61-97.61
		c-53.82,0-97.61,43.79-97.61,97.61v120.34c0,2.93-2.37,5.31-5.31,5.31c-2.93,0-5.31-2.37-5.31-5.31V134.94
		c0-59.68,48.55-108.23,108.23-108.23c59.68,0,108.23,48.55,108.23,108.23v120.34C404.65,258.21,402.28,260.59,399.34,260.59z"/>
	<path class="st0" d="M296.42,231.54c-39.54,0-71.7-39.43-71.7-87.89c0-2.93,2.37-5.31,5.31-5.31h132.79c2.94,0,5.31,2.37,5.31,5.31
		C368.13,192.11,335.96,231.54,296.42,231.54z M235.48,148.96c2.16,40.14,28.67,71.96,60.94,71.96c32.28,0,58.78-31.82,60.94-71.96
		H235.48z"/>
	<path class="st0" d="M405.25,390.3c-2.93,0-5.31-2.37-5.31-5.31v-53.33c0-14.76-7.11-28.77-19.03-37.48l-42.52-31.06l-37.32,67.87
		c-0.93,1.7-2.72,2.75-4.65,2.75l0,0c-1.94,0-3.72-1.05-4.65-2.75l-37.31-67.87l-42.52,31.06c-11.92,8.71-19.03,22.72-19.03,37.48
		v53.33c0,2.93-2.37,5.31-5.31,5.31c-2.93,0-5.31-2.37-5.31-5.31v-53.33c0-18.13,8.74-35.35,23.39-46.05l47.39-34.62
		c1.23-0.9,2.8-1.22,4.28-0.9c1.49,0.33,2.77,1.29,3.5,2.63l35.57,64.7l35.57-64.7c0.74-1.34,2.01-2.3,3.5-2.63
		c1.47-0.33,3.05-0.01,4.28,0.9l47.39,34.62c14.65,10.71,23.39,27.92,23.39,46.05v53.33C410.56,387.93,408.18,390.3,405.25,390.3z"
		/>
	<path class="st0" d="M280.81,381.4c-0.84,0-1.7-0.2-2.49-0.62l-31.42-16.76c-2.19-1.17-3.28-3.71-2.62-6.1L250,337.2l-27.96-16.77
		c-2.41-1.44-3.27-4.51-1.98-6.99l31.42-60.59c1.34-2.61,4.56-3.62,7.16-2.27c2.6,1.35,3.62,4.55,2.27,7.16l-29.12,56.16
		l27.14,16.29c2.04,1.23,3.02,3.67,2.38,5.97l-5.67,20.51l27.67,14.76c2.59,1.38,3.57,4.6,2.19,7.19
		C284.54,380.38,282.71,381.4,280.81,381.4z"/>
	<path class="st0" d="M312.04,381.4c-1.9,0-3.73-1.02-4.69-2.81c-1.38-2.59-0.4-5.8,2.19-7.19l27.67-14.76l-5.67-20.51
		c-0.64-2.3,0.34-4.74,2.38-5.97l27.14-16.29l-29.12-56.16c-1.35-2.6-0.33-5.81,2.27-7.16c2.59-1.35,5.81-0.34,7.16,2.27
		l31.42,60.59c1.29,2.49,0.43,5.55-1.98,6.99l-27.96,16.77l5.73,20.72c0.66,2.4-0.43,4.93-2.62,6.1l-31.42,16.76
		C313.73,381.2,312.88,381.4,312.04,381.4z"/>
</g>
</svg>
