<?xml version="1.0" encoding="utf-8"?>
<!-- Generator: Adobe Illustrator 26.5.0, SVG Export Plug-In . SVG Version: 6.00 Build 0)  -->
<svg version="1.1" id="Layer_1" xmlns="http://www.w3.org/2000/svg" xmlns:xlink="http://www.w3.org/1999/xlink" x="0px" y="0px"
	 viewBox="0 0 595.28 419.53" style="enable-background:new 0 0 595.28 419.53;" xml:space="preserve">
<style type="text/css">
	.st0{fill:#010101;}
</style>
<g>
	<g>
		<path class="st0" d="M188.78,285.97c-2.1,0-4.1-1.21-5.01-3.25c-36.21-81.37-29.83-138.87-29.05-144.74
			c0.21-59.87,48.98-108.72,108.89-108.96c59.96,0.25,108.73,49.1,108.94,108.97c0.31,2.35,1.61,14.03,0.3,32.92
			c-0.21,3.02-2.82,5.25-5.84,5.08c-3.02-0.21-5.29-2.83-5.08-5.84c1.36-19.49-0.25-30.88-0.26-31c-0.04-0.26-0.06-0.53-0.06-0.79
			c0-54.03-43.96-98.17-97.98-98.4c-53.98,0.22-97.94,44.36-97.94,98.4c0,0.26-0.02,0.53-0.06,0.79
			c-0.08,0.57-7.88,58.15,28.16,139.12c1.22,2.76-0.02,6-2.78,7.23C190.28,285.82,189.53,285.97,188.78,285.97z"/>
		<path class="st0" d="M263.21,264.33c-38.15,0-69.19-34.77-69.19-77.5c0-3.03,2.45-5.48,5.48-5.48c3.03,0,5.48,2.45,5.48,5.48
			c0,36.69,26.13,66.54,58.24,66.54c3.03,0,5.48,2.45,5.48,5.48C268.68,261.88,266.24,264.33,263.21,264.33z"/>
		<path class="st0" d="M199.49,203.97c-0.75,0-1.51-0.16-2.24-0.48c-22.28-10.03-17.9-38.5-17.7-39.7c0.25-1.5,1.11-2.83,2.37-3.67
			c8.2-5.46,28.7-42.38,39.69-64.37c0.86-1.71,2.54-2.85,4.44-3c1.91-0.19,3.75,0.68,4.88,2.22
			c23.24,31.84,111.04,55.18,111.93,55.41c2.92,0.76,4.67,3.76,3.9,6.68c-0.76,2.92-3.76,4.68-6.68,3.9
			c-3.52-0.93-81.53-21.68-112.39-53.01c-8.35,16.2-26.27,49.43-37.53,59.56c-0.4,5.43-0.35,20.61,11.59,25.99
			c2.76,1.24,3.99,4.49,2.75,7.24C203.58,202.78,201.58,203.97,199.49,203.97z"/>
		<path class="st0" d="M139.43,359.9c-3.03,0-5.48-2.45-5.48-5.48v-15.58c0-35.67,29.02-64.68,64.68-64.68h34.01v-18.31l-0.75-0.41
			c-2.65-1.46-3.61-4.79-2.15-7.44c1.46-2.64,4.79-3.6,7.44-2.15l3.58,1.97c1.74,0.96,2.83,2.8,2.83,4.8v27.02
			c0,3.03-2.45,5.48-5.48,5.48h-39.49c-29.63,0-53.73,24.1-53.73,53.73v15.58C144.91,357.45,142.46,359.9,139.43,359.9z"/>
	</g>
	<g>
		<path class="st0" d="M375.42,397.68h-25.81c-2.84,0-5.21-2.17-5.45-5l-1.66-19.07c-8.13-1.76-15.89-4.74-23.14-8.89l-14.11,11.84
			c-2.18,1.83-5.39,1.68-7.39-0.32l-18.25-18.25c-2.01-2.01-2.15-5.22-0.32-7.39l11.26-13.41c-4.72-7.44-8.16-15.49-10.27-24.01
			l-17.11-1.5c-2.83-0.25-5-2.61-5-5.45v-25.81c0-2.84,2.17-5.21,5-5.45l17.11-1.49c2.11-8.52,5.55-16.56,10.27-24.01l-11.26-13.41
			c-1.83-2.17-1.69-5.39,0.32-7.39l18.25-18.25c2-2,5.22-2.15,7.39-0.32l14.11,11.84c7.25-4.15,15.01-7.13,23.14-8.89l1.66-19.07
			c0.25-2.83,2.61-5,5.45-5h25.81c2.84,0,5.21,2.17,5.45,5l1.78,20.37c7.4,2.11,14.42,5.24,20.96,9.34l16.19-13.59
			c2.17-1.84,5.38-1.68,7.39,0.32l18.25,18.25c2.01,2,2.15,5.22,0.32,7.39l-14.17,16.89c3.59,6.34,6.29,13.06,8.08,20.08l22.21,1.94
			c2.83,0.25,5,2.61,5,5.45v25.81c0,2.84-2.17,5.21-5,5.45l-22.21,1.94c-1.78,7.02-4.49,13.75-8.08,20.08l14.17,16.89
			c1.83,2.17,1.69,5.38-0.32,7.39l-18.25,18.25c-2.01,2.01-5.21,2.16-7.39,0.32l-16.19-13.59c-6.53,4.1-13.56,7.23-20.96,9.34
			l-1.78,20.36C380.63,395.51,378.26,397.68,375.42,397.68z M354.63,386.73h15.77l1.68-19.21c0.2-2.36,1.9-4.32,4.21-4.86
			c8.83-2.06,17.09-5.76,24.56-10.99c2.03-1.43,4.77-1.3,6.66,0.29l15.48,12.99l11.15-11.15l-13.45-16.04
			c-1.53-1.82-1.71-4.43-0.44-6.44c4.66-7.37,7.89-15.41,9.59-23.87c0.48-2.39,2.47-4.17,4.89-4.38l21.19-1.85v-15.77l-21.19-1.85
			c-2.42-0.21-4.42-1.99-4.89-4.38c-1.7-8.47-4.92-16.5-9.59-23.87c-1.27-2.02-1.1-4.62,0.44-6.44l13.45-16.04l-11.15-11.15
			l-15.48,12.99c-1.89,1.59-4.63,1.72-6.66,0.29c-7.46-5.23-15.73-8.93-24.56-10.99c-2.3-0.53-4.01-2.5-4.21-4.86l-1.68-19.22
			h-15.77l-1.59,18.2c-0.22,2.5-2.1,4.52-4.58,4.93c-9.53,1.55-18.51,4.98-26.69,10.2c-2.02,1.29-4.64,1.12-6.46-0.42l-13.26-11.13
			l-11.15,11.15l10.67,12.72c1.6,1.9,1.72,4.65,0.28,6.68c-5.85,8.27-9.8,17.47-11.73,27.37c-0.46,2.4-2.46,4.19-4.9,4.41
			l-16.11,1.41v15.77l16.11,1.41c2.43,0.21,4.43,2.01,4.9,4.41c1.93,9.89,5.87,19.1,11.73,27.37c1.44,2.03,1.33,4.78-0.28,6.68
			L290.9,353.8l11.15,11.15l13.26-11.13c1.83-1.54,4.45-1.71,6.46-0.42c8.18,5.22,17.16,8.65,26.69,10.2
			c2.48,0.41,4.36,2.43,4.58,4.93L354.63,386.73z M461.39,306.23h0.05H461.39z"/>
		<path class="st0" d="M362.52,345.69c-28.87,0-52.36-23.49-52.36-52.36c0-28.87,23.49-52.36,52.36-52.36
			c28.87,0,52.36,23.49,52.36,52.36C414.88,322.2,391.39,345.69,362.52,345.69z M362.52,251.92c-22.84,0-41.41,18.58-41.41,41.41
			c0,22.83,18.58,41.41,41.41,41.41c22.83,0,41.41-18.58,41.41-41.41C403.93,270.5,385.35,251.92,362.52,251.92z"/>
	</g>
</g>
</svg>
